<?xml version="1.0" encoding="utf-8"?>
<!-- Generator: Adobe Illustrator 23.0.1, SVG Export Plug-In . SVG Version: 6.00 Build 0)  -->
<svg version="1.1" xmlns="http://www.w3.org/2000/svg" xmlns:xlink="http://www.w3.org/1999/xlink" x="0px" y="0px"
	 viewBox="0 0 1342.9 1029.3" style="enable-background:new 0 0 1342.9 1029.3;" xml:space="preserve">
<style type="text/css">
	.st0{fill:#E8C86D;}
	.st1{fill:#823131;}
	.st2{fill:#AF755D;}
	.st3{fill:#710000;}
	.st4{fill:none;stroke:#535461;stroke-width:2;stroke-miterlimit:10;}
	.st5{fill:#C36F09;}
	.st6{opacity:0.2;fill:#F5F5F5;enable-background:new    ;}
	.st7{opacity:0.2;fill:#710000;enable-background:new    ;}
	.st8{fill:url(#SVGID_1_);}
	.st9{fill:#E14B5A;}
	.st10{fill:#F7C4A7;}
	.st11{opacity:0.1;enable-background:new    ;}
	.st12{fill:#575988;}
	.st13{opacity:0.1;}
	.st14{fill:#632652;}
	.st15{fill:#535461;}
	.st16{fill:#FFFFFF;}
	.st17{opacity:0.1;fill:none;stroke:#000000;stroke-miterlimit:10;enable-background:new    ;}
	.st18{fill:#6A5C99;}
	.st19{fill:#FFD037;}
	.st20{fill:#D6D6E3;}
</style>
<g id="Layer_2">
</g>
<g id="Layer_1">
	<g>
		<path class="st0" d="M198.2,488.9c-53,37.7-106.1,75.3-159.1,113c-22.5,16-47.9,41.7-36.1,66.6c9.9,21,38.6,23.2,57.6,36.5
			c29,20.4,30.3,63.1,21.6,97.4S57.4,870.7,62,905.8c6.2,47.1,49.6,82.5,95.8,93.9s94.6,3.5,141.3-5.6
			c46.6-9.2,94.1-19.7,141.2-13.6c74,9.6,142.7,59.8,216.5,48.7c58.9-8.9,105.1-55.4,137.8-105.2s56.8-105.5,96-150.4
			c56.5-64.6,143.4-101.5,229.2-97.2c38.5,1.9,76.5,11.6,114.9,10.6c38.5-1.1,80-15.9,98.5-49.7c13.4-24.6,12.1-55.5,1-81.2
			c-11.1-25.7-31-46.8-53.1-64c-69-53.5-159.6-71.9-246.9-71.6S860.6,438.4,774,449.2c-141.6,17.6-285.5,17.4-427.1-0.7
			c-34.1-4.3-69-9.7-102.7-2.5c-33.7,7.2-66.4,30.1-74.2,63.7"/>
	</g>
	<g>
		<path class="st1" d="M544.1,898.4c61.3,26.9,122.6,53.9,183.9,80.8c30.8,13.5,64,27.4,97.1,21.2c39.6-7.4,68.7-41.4,106-56.7
			c27.9-11.4,58.9-11.7,89.1-12.1c30.2-0.4,61.2-1.1,88.8-13.3c27.6-12.2,51-38.8,50.1-69c-1.1-35.4-33.4-61.3-64.6-78.1
			c-31.2-16.8-66.5-31.9-83.7-62.9c-29-52.3,8.9-119-6.8-176.7c-15.6-57.1-80.4-88.1-139.6-88.2c-59.2-0.1-115.6,22.7-172.7,38
			c-57.2,15.2-121.4,22.2-172.8-7.2c-64.3-36.7-87.5-116.6-132.5-175.5c-30.4-39.9-73.2-71.4-122.1-82.5
			c-48.9-11.1-103.6,0.1-140.5,34s-52.2,91.3-32,137.2c23.8,54,84.6,78.9,136.8,106.3C388.8,577.8,510.6,731.8,555.4,907"/>
	</g>
	<path class="st2" d="M313.3,926.1h593.6c133.5-92.1,220.7-244.5,220.7-417c0-281.1-231.7-509-517.5-509S92.6,227.9,92.6,509
		C92.6,681.6,179.9,834,313.3,926.1z"/>
	<title>coding</title>
	<path class="st3" d="M246.6,414.5c0,0,73.3,73.3,31.9,182s70.9,289.6,70.9,289.6s-1.2-0.2-3.4-0.6C195.5,859,120.7,686.9,204.4,559
		C235.5,511.5,261,455.7,246.6,414.5z"/>
	<path class="st4" d="M246.6,414.5c0,0,41.4,89.8,0,163.1s-7.1,279,102.8,308.5"/>
	<path class="st5" d="M116,711c0,0,83.6-13.3,91.3,61.6s160.8,85.3,160.8,85.3s-1,0.7-2.9,1.9c-126.5,83-247.4,52.9-229.2-57.4
		C142.8,761.5,142.3,720.3,116,711z"/>
	<path class="st6" d="M116,711c0,0,83.6-13.3,91.3,61.6s160.8,85.3,160.8,85.3s-1,0.7-2.9,1.9c-126.5,83-247.4,52.9-229.2-57.4
		C142.8,761.5,142.3,720.3,116,711z"/>
	<path class="st4" d="M116,711c0,0,64.9,14.2,59.6,73.3S272,914,368.1,857.9"/>
	<g>
		<rect x="881.5" y="289.5" class="st7" width="52" height="27"/>
		<g>
			<rect x="879.5" y="421.5" class="st7" width="52" height="27"/>
			<rect x="883.5" y="454.5" class="st7" width="52" height="27"/>
			<rect x="840.5" y="225.5" class="st7" width="52" height="27"/>
			<rect x="877.5" y="256.5" class="st7" width="52" height="27"/>
			<rect x="777.5" y="227.5" class="st7" width="52" height="27"/>
			<rect x="944.5" y="287.5" class="st7" width="52" height="27"/>
			<rect x="814.5" y="258.5" class="st7" width="52" height="27"/>
			<rect x="941.5" y="495.5" class="st7" width="52" height="27"/>
			<rect x="878.5" y="497.5" class="st7" width="52" height="27"/>
			<rect x="116.5" y="422.5" class="st7" width="52" height="27"/>
			<rect x="153.5" y="453.5" class="st7" width="52" height="27"/>
			<rect x="434.5" y="138.5" class="st7" width="52" height="27"/>
			<rect x="844.5" y="636.5" class="st7" width="52" height="27"/>
			<rect x="157.5" y="486.5" class="st7" width="52" height="27"/>
			<rect x="471.5" y="169.5" class="st7" width="52" height="27"/>
			<rect x="281.5" y="352.5" class="st7" width="52" height="27"/>
			<rect x="318.5" y="383.5" class="st7" width="52" height="27"/>
			<rect x="417.5" y="366.5" class="st7" width="52" height="27"/>
			<rect x="322.5" y="416.5" class="st7" width="52" height="27"/>
			<rect x="914.5" y="636.5" class="st7" width="52" height="27"/>
		</g>
	</g>
	
		<linearGradient id="SVGID_1_" gradientUnits="userSpaceOnUse" x1="726.8889" y1="280.5967" x2="726.8889" y2="823.0467" gradientTransform="matrix(1 0 0 -1 -149.42 1008.5934)">
		<stop  offset="0" style="stop-color:#808080;stop-opacity:0.25"/>
		<stop  offset="0.54" style="stop-color:#808080;stop-opacity:0.12"/>
		<stop  offset="1" style="stop-color:#808080;stop-opacity:0.1"/>
	</linearGradient>
	<path class="st8" d="M836.5,529.7c-3.4-18.7-5.4-37.7-6.2-56.7l0,0c-1.4-32.1-22.8-59.9-53.5-69.4c-5.5-1.7-11.5-3.2-18.1-4.7
		c-58.2-12.4-75.9-1.6-77.9-0.1c-1.7-3.1-3.2-6.3-4.4-9.6c-0.1-0.3-0.2-0.7-0.3-1c11.5-12.3,18.5-28.1,19.9-44.9
		c9.7-9.8,15.4-21.7,15.4-34.5c0-11-4.2-21.3-11.5-30.2v-17.4c0-41.7-33.8-75.6-75.6-75.6l0,0h-6.1c-41.7,0-75.6,33.8-75.6,75.6l0,0
		v18.7c-6.7,8.6-10.5,18.4-10.5,28.9c0,12.5,5.4,24.2,14.8,33.9c1.3,17.4,8.6,33.8,20.7,46.3c0.4,2.8,0.8,5.9,1.2,9.1l-104.1,22
		c0,0-40.1,1.6-66,55c-21.9,45.2-65.4,161.3-78.3,195.8l0,0c-2.3,6.3-3.6,9.8-3.6,9.8s0.4-0.4,1.2-1.2l-1.2,3.4c0,0,0.6-0.6,1.8-1.7
		c-1.8,14.5-2.1,39.3,16.9,42.4c15.9,2.6,56.8,3.7,87.7,4.1l0,0h2.1c20.5,0.3,36.1,0.3,36.1,0.3v-0.3h332.4v-3.4
		c0-3.1-0.6-6.2-1.8-9l0.5-0.6c1.8,2.3,3,5.1,3.5,8c0,0.3-0.1,0.6-0.2,0.8l0.2-0.5c0.1,0.9,0,1.8-0.2,2.7c0,0,42.7-109.9,42.2-175.5
		C838.2,543.4,837.6,536.5,836.5,529.7z M570.6,412.9c-0.6-3.1-0.9-6.3-1.1-9.5c0,0,0-0.1,0-0.1
		C569.9,406.4,570.3,409.6,570.6,412.9z M441.4,648.9v26.2l-16.4,3.5L441.4,648.9z"/>
	<path class="st9" d="M619.5,196.1L619.5,196.1c41.7,0,75.6,33.8,75.6,75.6v32.2l0,0H544l0,0v-32.2C544,230,577.8,196.1,619.5,196.1
		z"/>
	<ellipse class="st9" cx="620.1" cy="314.5" rx="86.1" ry="59.2"/>
	<path class="st10" d="M564.9,371.8c0,0,18,94.1,0,119.4c-18,25.4,55,35.4,55,35.4l75.6-27.5l10.6-67.6c0,0-46-25.9-36.5-78.2
		L564.9,371.8z"/>
	<path class="st10" d="M787.9,688.9c0,0,4.8,20.6-21.1,24.3c-15.3,2.2-30.8,2.1-46.1-0.5l-5.7-51.8h60.2L787.9,688.9z"/>
	<path class="st10" d="M330.5,662.6c0,0-11.4,46.5,14.5,50.7s121,4.2,121,4.2v-55l-43.1,9.2l-40.4-38.8L330.5,662.6z"/>
	<path class="st11" d="M570.4,402.2l-101.2,21.4c0,0-38.6,1.6-63.4,52.9S327,674.1,327,674.1s46-46.5,99.9,3.2l35.9-65l-7.9,103.1
		h278.5v-48.6c0,0,58.1,31.2,53.9,48.6c0,0,49.8-128.2,39-186.4c-3.2-18-5.2-36.2-5.9-54.5l0,0c-1.3-30.9-21.9-57.6-51.4-66.7
		c-5.2-1.6-11-3.1-17.4-4.5c-59.7-12.7-75,0-75,0S665,440.9,665.2,458c0.3,21.9-31.2,36.5-31.2,36.5s-46.5-11.1-48.6-20.1
		S566.7,412.8,570.4,402.2z"/>
	<path class="st12" d="M570.4,400.1l-101.2,21.4c0,0-38.6,1.6-63.4,52.9S327,672,327,672s46-46.5,99.9,3.2l35.9-65l-7.9,103h278.5
		v-48.6c0,0,58.1,31.2,53.9,48.6c0,0,49.8-128.2,39-186.4c-3.2-18-5.2-36.2-5.9-54.5l0,0c-1.3-30.9-21.9-57.6-51.4-66.7
		c-5.2-1.6-11-3.1-17.4-4.5c-59.7-12.7-75,0-75,0s-11.6,37.6-11.4,54.7c0.3,21.9-31.2,36.5-31.2,36.5s-46.5-11.1-48.6-20.1
		S566.7,410.7,570.4,400.1z"/>
	<path class="st11" d="M673.8,395.6c-4.3-12-5.2-25-2.8-37.5l-104.7,18.5c0,0,1.5,7.9,3.2,19.8c27.5,28.6,73,29.4,101.6,1.9
		C672.1,397.4,673,396.5,673.8,395.6L673.8,395.6z"/>
	<path class="st10" d="M691.7,341.7c-0.2,39.7-32.5,71.7-72.2,71.6c-38.8-0.2-70.4-31.1-71.5-69.8c0-0.6,0-1.2,0-1.7
		c0-27.5,15.6-52.5,40.3-64.6c2.2-1.1,4.4-2,6.6-2.8c11.8-4.3,24.6-5.5,37-3.4l0,0c32.8,5.6,57.4,32.9,59.6,66.1
		C691.6,338.5,691.7,340.1,691.7,341.7z"/>
	<g class="st13">
		<path d="M594.8,276L594.8,276c-2.2,0.8-4.4,1.7-6.5,2.8c-24.7,12.1-40.3,37.1-40.3,64.6c0,0.6,0,1.2,0,1.7
			c2.2-0.1,4.4-0.6,6.5-1.5c17.5-8.2,28-33.2,32.2-50.6C588.1,286.6,589.5,279.6,594.8,276z"/>
		<path d="M649.8,278c-5.7-2.6-11.7-4.5-17.9-5.5c5.1,1.2,9.6,4,12.8,8.1c1.6,2.2,2.9,4.5,3.9,7c-19.4-8.5-41.5-8-60.5,1.2
			c4.5,9.9,18.5,15.3,27.8,18.9c10.2,3.9,20.6,7.6,31,10.8l-9.2-7.5l20.9,3.3c0.2-4.2-0.3-8.3-1.5-12.3c4,3.2,9.3,4.3,13.6,7
			c8.1,5.1,11.5,15,16,23.6c1.2,2.3,2.5,4.6,4.7,6C689.7,312.3,673.7,289,649.8,278z"/>
	</g>
	<path class="st14" d="M594.8,274.3L594.8,274.3c-2.2,0.8-4.4,1.7-6.5,2.8c-24.7,12.1-40.3,37.1-40.3,64.6c0,0.6,0,1.2,0,1.7
		c2.2-0.1,4.4-0.6,6.5-1.5c17.5-8.2,28-33.2,32.2-50.6C588.1,285,589.5,278,594.8,274.3z"/>
	<path class="st14" d="M649.8,276.4c-5.7-2.6-11.7-4.5-17.9-5.5c5.1,1.2,9.6,4,12.8,8.1c1.6,2.2,2.9,4.5,3.9,7
		c-19.4-8.5-41.5-8-60.5,1.2c4.5,9.9,18.5,15.3,27.8,18.9c10.2,3.9,20.6,7.6,31,10.8l-9.2-7.5l20.9,3.3c0.2-4.2-0.3-8.3-1.5-12.3
		c4,3.2,9.3,4.3,13.6,7c8.1,5.1,11.5,15,16,23.6c1.2,2.3,2.5,4.6,4.7,6C689.7,310.6,673.7,287.4,649.8,276.4z"/>
	<path class="st11" d="M539.7,329.9c0,0,74-92,159.6,0l-7.4-20.6c0,0-40.2-58.7-68.7-46c-28.5,12.7-56.5,21.7-56.5,21.7L539.7,329.9
		z"/>
	<path class="st9" d="M539.7,328.2c0,0,74-92,159.6,0l-7.4-20.6c0,0-40.2-58.7-68.7-46c-28.5,12.7-56.5,21.7-56.5,21.7L539.7,328.2z
		"/>
	<path class="st11" d="M479,526.4c0,0-15.9,42.3,6.3,80.3c22.2,38-19.5,53.9-19.5,53.9"/>
	<path class="st11" d="M735.8,488.4c0,0,27.5,34.9,9.5,66.1c-18,31.2-16.9,106.2-16.9,106.2"/>
	<path class="st15" d="M454.7,691.8h305.5c14,0,25.4,11.4,25.4,25.4l0,0l0,0H429.3l0,0l0,0C429.3,703.2,440.6,691.9,454.7,691.8z"/>
	<path class="st15" d="M485.7,517.4h243.3c21.5,0,39,17.5,39,39v141.2l0,0H446.7l0,0V556.4C446.7,534.9,464.2,517.4,485.7,517.4z"/>
	<circle class="st16" cx="607.1" cy="615.5" r="19"/>
	<path class="st17" d="M544,286.7c0,0,72.7-72.7,151.1-1.3"/>
	<rect x="706.2" y="282.1" class="st18" width="7.3" height="41.4"/>
	<path class="st19" d="M696.5,308.9L696.5,308.9c13.9,0,25.2,11.3,25.2,25.2v1.6c0,13.9-11.3,25.2-25.2,25.2l0,0l0,0V308.9
		L696.5,308.9z"/>
	<path class="st18" d="M697.3,306.5L697.3,306.5c3.1,0,5.7,2.5,5.7,5.7v45.5c0,3.1-2.5,5.7-5.7,5.7l0,0c-3.1,0-5.7-2.5-5.7-5.7
		v-45.5C691.6,309,694.1,306.5,697.3,306.5z"/>
	<rect x="524.9" y="282.9" class="st18" width="7.3" height="41.4"/>
	<path class="st19" d="M541.9,361.6L541.9,361.6c-13.9,0-25.2-11.3-25.2-25.2v-1.6c0-13.9,11.3-25.2,25.2-25.2l0,0l0,0V361.6
		L541.9,361.6z"/>
	<path class="st18" d="M541.1,364.1L541.1,364.1c-3.1,0-5.7-2.5-5.7-5.7v-45.5c0-3.1,2.5-5.7,5.7-5.7l0,0c3.1,0,5.7,2.5,5.7,5.7
		v45.5C546.8,361.5,544.2,364.1,541.1,364.1z"/>
	<path class="st19" d="M705.3,237.9c-9.9-20.6-31.4-45.4-77.9-47.4v-0.1h-0.6l0,0l-16.5,0.8v0.1c-46.1,2.1-67.6,26.9-77.4,47.4
		c-6.6,13.9-10.1,29-10.2,44.4l5.7-0.1l5.7-0.1c0.2-13.7,3.4-27.1,9.2-39.5c12.5-25.7,35.6-39.4,68.5-40.7l0,0l14.5-0.8l0,0
		c32.9,1.3,56,14.9,68.5,40.7c5.8,12.4,9,25.9,9.2,39.5l5.7,0.1l5.7,0.1C715.4,266.9,711.9,251.8,705.3,237.9z"/>
	<rect x="230.1" y="717.5" class="st20" width="774.7" height="208"/>
	<rect x="227.1" y="731.5" class="st11" width="774.7" height="27"/>
	<rect x="178.1" y="714.5" class="st20" width="878.6" height="27"/>
</g>
</svg>
