<?xml version="1.0" encoding="utf-8"?>
<!-- Generator: Adobe Illustrator 23.0.1, SVG Export Plug-In . SVG Version: 6.00 Build 0)  -->
<svg version="1.1" xmlns="http://www.w3.org/2000/svg" xmlns:xlink="http://www.w3.org/1999/xlink" x="0px" y="0px"
	 viewBox="0 0 1920 3709" style="enable-background:new 0 0 1920 3709;" xml:space="preserve">
<style type="text/css">
	.st0{display:none;}
	.st1{display:inline;}
	.st2{fill:url(#SVGID_1_);}
	.st3{fill:url(#SVGID_2_);}
	.st4{fill:url(#SVGID_3_);}
	.st5{clip-path:url(#SVGID_5_);}
	.st6{fill:url(#SVGID_6_);}
	.st7{fill:url(#SVGID_7_);}
	.st8{fill:url(#SVGID_8_);}
	.st9{fill:url(#SVGID_9_);}
	.st10{clip-path:url(#SVGID_5_);fill:url(#SVGID_10_);}
</style>
<g id="Layer_3" class="st0">
	<g class="st1">
		
			<image style="overflow:visible;opacity:0.12;" width="2158" height="1141" xlink:href="A8E9F5F5F463E34F.png"  transform="matrix(1 0 0 1 -106 1216)">
		</image>
		<g>
			
				<linearGradient id="SVGID_1_" gradientUnits="userSpaceOnUse" x1="950.4292" y1="1599.0004" x2="950.4292" y2="2504.9214" gradientTransform="matrix(-1 0 0 -1 1915.0836 3853.0134)">
				<stop  offset="0" style="stop-color:#722E17"/>
				<stop  offset="1" style="stop-color:#773F25"/>
			</linearGradient>
			<path class="st2" d="M1926.1,2237c-29.2,58.5-127-48.5-160-104c-41-69-125.8-45.3-151.1-105.6c-20.3-48.4-18.3-104.4-40-152.1
				c-35.8-78.5-130.8-115.8-215.3-105s-159.7,60.2-224.8,116.3c-65.1,56-123.8,120.1-194.2,169.2c-157.6,109.9-370,133.1-546.6,59.7
				c-65.3-27.1-125.7-66.4-193.2-87.5c-67.5-21-139.5-0.6-193.3,46l-4.3-725.8l1919.4,10.4L1926.1,2237z"/>
		</g>
	</g>
	<g class="st1">
		
			<image style="overflow:visible;opacity:0.25;" width="2208" height="1143" xlink:href="A8E9F5F5F463E34D.png"  transform="matrix(1 0 0 1 -138 1167)">
		</image>
		<g>
			
				<linearGradient id="SVGID_2_" gradientUnits="userSpaceOnUse" x1="462.5317" y1="1370.994" x2="1331.0603" y2="2875.3298" gradientTransform="matrix(-1.0254 -1.563471e-03 -1.563471e-03 -1.0001 1916.106 3853.0764)">
				<stop  offset="0" style="stop-color:#8E3E29"/>
				<stop  offset="1" style="stop-color:#965C45"/>
			</linearGradient>
			<path class="st3" d="M1944.1,2191c-29.9,58.5-130.3-48.7-164.2-104.3c-42.1-69.1-129.1-45.5-155.1-105.8
				c-20.9-48.4-18.9-104.4-41.3-152.2c-36.8-78.6-80.7-169.3-167.4-158.7c-86.7,10.6-217.3,113.3-283.9,169.3
				c-66.7,55.9-126.8,119.9-198.8,168.9c-161.4,109.6-403.4,175.5-560.4,58.8c-57.8-43-119.6-140.8-188.8-162
				s-152.4,73.4-207.5,119.9L-29,1299l1968.1,13.4L1944.1,2191z"/>
		</g>
	</g>
	<g class="st1">
		
			<image style="overflow:visible;opacity:0.25;" width="2155" height="1006" xlink:href="A8E9F5F5F463E353.png"  transform="matrix(1 0 0 1 -106 1226)">
		</image>
		<g>
			
				<linearGradient id="SVGID_3_" gradientUnits="userSpaceOnUse" x1="505.9982" y1="1426.2855" x2="1320.1073" y2="2836.3638" gradientTransform="matrix(-1 0 0 -1 1915.0836 3853.0134)">
				<stop  offset="0" style="stop-color:#B57559"/>
				<stop  offset="1" style="stop-color:#E5BBA8"/>
			</linearGradient>
			<path class="st4" d="M3.7,1358l3,598.7c55.5-48.8,86.8-158.6,156.4-136.7s174.8,151.4,242.1,179.7
				c182.1,76.7,401.2,52.2,563.8-63c72.6-51.4,133.2-118.5,200.4-177.2s203.3-191.2,290.6-202.5c87.3-11.3,126.5,108.2,163.4,190.4
				c22.4,49.9,20.2,108.5,41.1,159.2c26,63.1,113.5,38.2,155.7,110.4c20.2,34.6,64.1,88.2,102.7,113.1v-772H3.7z"/>
		</g>
	</g>
</g>
<g id="Layer_4">
	<g>
		<defs>
			<rect id="SVGID_4_" y="-390" width="1920" height="4099"/>
		</defs>
		<clipPath id="SVGID_5_">
			<use xlink:href="#SVGID_4_"  style="overflow:visible;"/>
		</clipPath>
		<g class="st5">
			<linearGradient id="SVGID_6_" gradientUnits="userSpaceOnUse" x1="1919.9585" y1="-99" x2="1919.9585" y2="23.0541">
				<stop  offset="0" style="stop-color:#39464C"/>
				<stop  offset="1" style="stop-color:#5C6B73"/>
			</linearGradient>
			<polygon class="st6" points="1920,23.1 1920,-99 1919.9,-99 			"/>
			<linearGradient id="SVGID_7_" gradientUnits="userSpaceOnUse" x1="960" y1="20.0445" x2="960" y2="1460">
				<stop  offset="0" style="stop-color:#39464C"/>
				<stop  offset="1" style="stop-color:#5C6B73"/>
			</linearGradient>
			<path class="st7" d="M961.2,172.6C647.8,254.7,322.4,332.3,0,290.1V1460h1920V23.1C1595,2.3,1274.8,90.5,961.2,172.6z"/>
		</g>
		<g class="st5">
			
				<image style="overflow:visible;opacity:0.12;" width="2157" height="1140" xlink:href="A8E9F5F5F463E355.png"  transform="matrix(1 0 0 1 -112 800)">
			</image>
			<g>
				<linearGradient id="SVGID_8_" gradientUnits="userSpaceOnUse" x1="958.4292" y1="932.0004" x2="958.4292" y2="1837.9213">
					<stop  offset="0" style="stop-color:#722E17"/>
					<stop  offset="1" style="stop-color:#773F25"/>
				</linearGradient>
				<path class="st8" d="M-3,949c29.2-58.5,127,48.5,160,104c41,69,125.8,45.3,151.1,105.6c20.3,48.4,18.3,104.4,40,152.1
					c35.8,78.5,130.8,115.8,215.3,105c84.6-10.8,159.7-60.2,224.8-116.3c65.1-56,123.8-120.1,194.2-169.2
					c157.6-109.9,370-133.1,546.6-59.7c65.3,27.1,125.7,66.4,193.2,87.5c67.5,21,139.5,0.6,193.3-46l4.3,725.8L0.5,1827.5L-3,949z"
					/>
			</g>
		</g>
		<g class="st5">
			
				<image style="overflow:visible;opacity:0.25;" width="2208" height="1144" xlink:href="A8E9F5F5F463E357.png"  transform="matrix(1 0 0 1 -130 846)">
			</image>
			<g>
				
					<linearGradient id="SVGID_9_" gradientUnits="userSpaceOnUse" x1="471.3505" y1="704.0444" x2="1339.8792" y2="2208.3801" gradientTransform="matrix(1.0254 1.563471e-03 1.563471e-03 1.0001 -1.0223 -6.293406e-02)">
					<stop  offset="0" style="stop-color:#8E3E29"/>
					<stop  offset="1" style="stop-color:#965C45"/>
				</linearGradient>
				<path class="st9" d="M-21,995c29.9-58.5,130.3,48.7,164.2,104.3c42.1,69.1,129.1,45.5,155.1,105.8
					c20.9,48.4,18.9,104.4,41.3,152.2c36.8,78.6,80.7,169.3,167.4,158.7s217.3-113.3,283.9-169.3s126.8-119.9,198.8-168.9
					c161.4-109.6,403.4-175.5,560.4-58.8c57.8,43,119.6,140.8,188.8,162s152.4-73.4,207.5-119.9l5.6,725.9L-16,1873.6L-21,995z"/>
			</g>
		</g>
		<linearGradient id="SVGID_10_" gradientUnits="userSpaceOnUse" x1="960" y1="1056.0425" x2="960" y2="3709">
			<stop  offset="0" style="stop-color:#B57559"/>
			<stop  offset="0.1682" style="stop-color:#C28E77"/>
			<stop  offset="0.7422" style="stop-color:#EEDFD8"/>
			<stop  offset="1" style="stop-color:#FFFFFF"/>
		</linearGradient>
		<path class="st10" d="M1919.4,1828l-3-598.7c-55.5,48.8-86.8,158.6-156.4,136.7s-174.8-151.4-242.1-179.7
			c-182.1-76.7-401.2-52.2-563.8,63c-72.6,51.4-133.2,118.5-200.4,177.2S550.3,1617.7,463,1629c-87.3,11.3-126.5-108.2-163.4-190.4
			c-22.4-49.9-20.2-108.5-41.1-159.2c-26-63.1-113.5-38.2-155.7-110.4C82.5,1134.5,38.6,1080.9,0,1056v772v665v280v936h1920v-936
			v-280v-665H1919.4z"/>
	</g>
</g>
</svg>
