<svg id="Layer_1" data-name="Layer 1" xmlns="http://www.w3.org/2000/svg" xmlns:xlink="http://www.w3.org/1999/xlink" viewBox="0 0 1035.03 926.09"><defs><style>.cls-1{fill:#a63c06;opacity:0.65;}.cls-2,.cls-6{fill:#710000;}.cls-16,.cls-3{fill:none;stroke-miterlimit:10;}.cls-3{stroke:#535461;stroke-width:2px;}.cls-4{fill:#c36f09;}.cls-5{fill:#f5f5f5;}.cls-5,.cls-6{opacity:0.2;}.cls-10,.cls-16,.cls-5,.cls-6{isolation:isolate;}.cls-7{fill:url(#linear-gradient);}.cls-8{fill:#e14b5a;}.cls-9{fill:#f7c4a7;}.cls-10,.cls-12,.cls-16{opacity:0.1;}.cls-11{fill:#575988;}.cls-13{fill:#632652;}.cls-14{fill:#535461;}.cls-15{fill:#fff;}.cls-16{stroke:#000;}.cls-17{fill:#6a5c99;}.cls-18{fill:#ffd037;}.cls-19{fill:#d6d6e3;}</style><linearGradient id="linear-gradient" x1="874.83" y1="401.01" x2="874.83" y2="943.46" gradientTransform="matrix(1, 0, 0, -1, -149.42, 1249.42)" gradientUnits="userSpaceOnUse"><stop offset="0" stop-color="gray" stop-opacity="0.25"/><stop offset="0.54" stop-color="gray" stop-opacity="0.12"/><stop offset="1" stop-color="gray" stop-opacity="0.1"/></linearGradient></defs><title>about-me-img-orange</title><path class="cls-1" d="M461.26,1046.5h593.61c133.46-92.06,220.71-244.53,220.71-417,0-281.14-231.7-509.05-517.52-509.05S240.55,348.32,240.55,629.46C240.55,802,327.8,954.44,461.26,1046.5Z" transform="translate(-240.55 -120.41)"/><path class="cls-2" d="M394.52,535s73.29,73.29,31.92,182,70.91,289.64,70.91,289.64-1.2-.18-3.43-.57C343.4,979.46,268.61,807.31,352.35,679.46,383.43,631.87,409,576.1,394.52,535Z" transform="translate(-240.55 -120.41)"/><path class="cls-3" d="M394.52,535s41.37,89.84,0,163.12-7.09,279,102.84,308.52" transform="translate(-240.55 -120.41)"/><path class="cls-4" d="M264,831.38s83.63-13.32,91.25,61.63,160.82,85.34,160.82,85.34-1,.68-2.87,1.91c-126.49,83-247.4,52.89-229.17-57.36C290.78,881.91,290.22,840.74,264,831.38Z" transform="translate(-240.55 -120.41)"/><path class="cls-5" d="M264,831.38s83.63-13.32,91.25,61.63,160.82,85.34,160.82,85.34-1,.68-2.87,1.91c-126.49,83-247.4,52.89-229.17-57.36C290.78,881.91,290.22,840.74,264,831.38Z" transform="translate(-240.55 -120.41)"/><path class="cls-3" d="M264,831.38s64.91,14.25,59.58,73.27,96.4,129.81,192.49,73.7" transform="translate(-240.55 -120.41)"/><rect class="cls-6" x="788.86" y="289.55" width="52" height="27"/><rect class="cls-6" x="786.86" y="421.55" width="52" height="27"/><rect class="cls-6" x="790.86" y="454.55" width="52" height="27"/><rect class="cls-6" x="747.86" y="225.55" width="52" height="27"/><rect class="cls-6" x="784.86" y="256.55" width="52" height="27"/><rect class="cls-6" x="684.86" y="227.55" width="52" height="27"/><rect class="cls-6" x="851.86" y="287.55" width="52" height="27"/><rect class="cls-6" x="721.86" y="258.55" width="52" height="27"/><rect class="cls-6" x="848.86" y="495.55" width="52" height="27"/><rect class="cls-6" x="785.86" y="497.55" width="52" height="27"/><rect class="cls-6" x="23.86" y="422.55" width="52" height="27"/><rect class="cls-6" x="60.86" y="453.55" width="52" height="27"/><rect class="cls-6" x="341.86" y="138.55" width="52" height="27"/><rect class="cls-6" x="751.86" y="636.55" width="52" height="27"/><rect class="cls-6" x="64.86" y="486.55" width="52" height="27"/><rect class="cls-6" x="378.86" y="169.55" width="52" height="27"/><rect class="cls-6" x="188.86" y="352.55" width="52" height="27"/><rect class="cls-6" x="225.86" y="383.55" width="52" height="27"/><rect class="cls-6" x="324.86" y="366.55" width="52" height="27"/><rect class="cls-6" x="229.86" y="416.55" width="52" height="27"/><rect class="cls-6" x="821.86" y="636.55" width="52" height="27"/><path class="cls-7" d="M984.42,650.07a413.73,413.73,0,0,1-6.18-56.71h0A76,76,0,0,0,924.78,524c-5.46-1.68-11.47-3.25-18.11-4.66-58.2-12.36-75.88-1.57-77.89-.15a75.9,75.9,0,0,1-4.43-9.61c-.1-.34-.19-.68-.29-1A74.51,74.51,0,0,0,844,463.67c9.71-9.84,15.38-21.72,15.38-34.51,0-11-4.2-21.32-11.55-30.25V381.53A75.57,75.57,0,0,0,772.23,306H766.1a75.57,75.57,0,0,0-75.57,75.57h0v18.73c-6.67,8.61-10.45,18.44-10.45,28.88,0,12.52,5.44,24.16,14.78,33.88a74.58,74.58,0,0,0,20.74,46.34c.41,2.84.83,5.89,1.24,9.11l-104.1,22s-40.14,1.65-66,55c-21.87,45.19-65.39,161.29-78.28,195.85h0c-2.33,6.26-3.65,9.85-3.65,9.85s.43-.43,1.24-1.17l-1.24,3.37s.63-.64,1.83-1.69c-1.82,14.46-2.08,39.29,16.86,42.38,15.88,2.59,56.8,3.66,87.71,4.09h2.14c20.49.27,36.08.27,36.08.27v-.27H941.87v-3.41a22.64,22.64,0,0,0-1.83-9l.46-.56a18.14,18.14,0,0,1,3.45,8,6.21,6.21,0,0,1-.16.84l.2-.51a8.24,8.24,0,0,1-.2,2.71S986.44,736.32,986,670.7A110.51,110.51,0,0,0,984.42,650.07ZM718.57,533.32a77.44,77.44,0,0,1-1.06-9.48v-.09C717.88,526.84,718.24,530,718.57,533.32Zm-129.22,236v26.19L573,799.06Z" transform="translate(-240.55 -120.41)"/><path class="cls-8" d="M767.48,316.53h0a75.57,75.57,0,0,1,75.57,75.57v32.24H691.91V392.1A75.57,75.57,0,0,1,767.48,316.53Z" transform="translate(-240.55 -120.41)"/><ellipse class="cls-8" cx="527.47" cy="314.5" rx="86.14" ry="59.19"/><path class="cls-9" d="M712.79,492.25s18,94.07,0,119.44,55,35.41,55,35.41l75.56-27.48L853.92,552s-46-25.9-36.47-78.22Z" transform="translate(-240.55 -120.41)"/><path class="cls-9" d="M935.81,809.35s4.76,20.61-21.14,24.31a146.56,146.56,0,0,1-46.08-.55l-5.71-51.77h60.25Z" transform="translate(-240.55 -120.41)"/><path class="cls-9" d="M478.47,783S467,829.46,492.93,833.66s121,4.23,121,4.23v-55l-43.06,9.2-40.42-38.76Z" transform="translate(-240.55 -120.41)"/><path class="cls-10" d="M718.35,522.64,617.14,544s-38.58,1.59-63.42,52.85S475,794.55,475,794.55s46-46.51,99.89,3.17l35.94-65-7.93,103.06H881.35V787.15s58.13,31.18,53.91,48.62c0,0,49.75-128.18,39-186.43a397.33,397.33,0,0,1-5.94-54.5h0a73,73,0,0,0-51.38-66.67c-5.24-1.61-11-3.12-17.4-4.47-59.72-12.68-75,0-75,0S813,561.34,813.18,578.4c.26,21.93-31.18,36.47-31.18,36.47s-46.51-11.1-48.62-20.08S714.63,533.21,718.35,522.64Z" transform="translate(-240.55 -120.41)"/><path class="cls-11" d="M718.35,520.53l-101.21,21.4s-38.58,1.59-63.42,52.85S475,792.46,475,792.46s46-46.51,99.89,3.17l35.94-65-7.93,103H881.35V785s58.13,31.18,53.91,48.62c0,0,49.75-128.18,39-186.43a397.33,397.33,0,0,1-5.94-54.5h0a73,73,0,0,0-51.38-66.67c-5.24-1.61-11-3.12-17.4-4.47-59.72-12.68-75,0-75,0s-11.57,37.64-11.36,54.7c.26,21.93-31.18,36.47-31.18,36.47s-46.51-11.1-48.62-20.08S714.63,531.1,718.35,520.53Z" transform="translate(-240.55 -120.41)"/><path class="cls-10" d="M821.77,516A71.59,71.59,0,0,1,819,478.52L714.35,497s1.51,7.91,3.22,19.76a71.87,71.87,0,0,0,101.61,1.88c.88-.85,1.74-1.72,2.57-2.61Z" transform="translate(-240.55 -120.41)"/><path class="cls-9" d="M839.62,462.13a71.88,71.88,0,0,1-143.73,1.74v-1.74a71.9,71.9,0,0,1,40.29-64.59,70.85,70.85,0,0,1,6.64-2.84,72.39,72.39,0,0,1,37-3.44h0a71.8,71.8,0,0,1,59.61,66.1C839.56,458.94,839.62,460.53,839.62,462.13Z" transform="translate(-240.55 -120.41)"/><g class="cls-12"><path d="M742.71,396.39l.1-.06a70.85,70.85,0,0,0-6.64,2.84,71.9,71.9,0,0,0-40.29,64.59v1.74a16,16,0,0,0,6.45-1.55c17.52-8.18,28-33.2,32.16-50.65C736,407.05,737.4,400,742.71,396.39Z" transform="translate(-240.55 -120.41)"/><path d="M797.72,398.4a70.65,70.65,0,0,0-17.87-5.51A23,23,0,0,1,792.68,401a31.9,31.9,0,0,1,3.93,7,72,72,0,0,0-60.45,1.25c4.51,9.89,18.5,15.28,27.84,18.89q15.35,5.91,31,10.83l-9.24-7.5,20.87,3.32a35.75,35.75,0,0,0-1.46-12.3c4,3.22,9.3,4.3,13.64,7,8.13,5.13,11.52,15,16,23.55,1.17,2.26,2.55,4.57,4.66,6A71.88,71.88,0,0,0,797.72,398.4Z" transform="translate(-240.55 -120.41)"/></g><path class="cls-13" d="M742.71,394.76l.1-.06a70.85,70.85,0,0,0-6.64,2.84,71.9,71.9,0,0,0-40.29,64.59v1.74a16,16,0,0,0,6.45-1.55c17.52-8.18,28-33.2,32.16-50.65C736,405.46,737.4,398.39,742.71,394.76Z" transform="translate(-240.55 -120.41)"/><path class="cls-13" d="M797.72,396.78a70.65,70.65,0,0,0-17.87-5.51,23,23,0,0,1,12.83,8.06,31.9,31.9,0,0,1,3.93,7,72,72,0,0,0-60.45,1.25c4.51,9.89,18.5,15.28,27.84,18.89q15.35,5.91,31,10.83l-9.24-7.5,20.87,3.32a35.75,35.75,0,0,0-1.46-12.3c4,3.22,9.3,4.3,13.64,7,8.13,5.13,11.52,15,16,23.55,1.17,2.26,2.55,4.57,4.66,6A71.88,71.88,0,0,0,797.72,396.78Z" transform="translate(-240.55 -120.41)"/><path class="cls-10" d="M687.68,450.28s74-92,159.61,0l-7.4-20.61s-40.17-58.66-68.7-46-56.55,21.67-56.55,21.67Z" transform="translate(-240.55 -120.41)"/><path class="cls-8" d="M687.68,448.65s74-92,159.61,0L839.89,428s-40.17-58.66-68.7-46-56.55,21.67-56.55,21.67Z" transform="translate(-240.55 -120.41)"/><path class="cls-10" d="M626.9,646.84s-15.85,42.28,6.34,80.33-19.55,53.91-19.55,53.91" transform="translate(-240.55 -120.41)"/><path class="cls-10" d="M883.75,608.79s27.48,34.88,9.51,66.06-16.91,106.23-16.91,106.23" transform="translate(-240.55 -120.41)"/><path class="cls-14" d="M602.59,812.26H908.06a25.37,25.37,0,0,1,25.37,25.37H577.23A25.37,25.37,0,0,1,602.59,812.26Z" transform="translate(-240.55 -120.41)"/><path class="cls-14" d="M633.67,637.85H877a39,39,0,0,1,39,39V818.07H594.67V676.85A39,39,0,0,1,633.67,637.85Z" transform="translate(-240.55 -120.41)"/><circle class="cls-15" cx="514.52" cy="615.48" r="19.03"/><path class="cls-16" d="M691.91,407.16s72.72-72.68,151.15-1.33" transform="translate(-240.55 -120.41)"/><rect class="cls-17" x="613.59" y="282.12" width="7.3" height="41.39"/><path class="cls-18" d="M844.39,429.31h0a25.15,25.15,0,0,1,25.16,25.16v1.62a25.16,25.16,0,0,1-25.16,25.16h0V429.31Z" transform="translate(-240.55 -120.41)"/><path class="cls-17" d="M845.2,426.88h0a5.68,5.68,0,0,1,5.68,5.68V478a5.68,5.68,0,0,1-5.68,5.68h0a5.69,5.69,0,0,1-5.68-5.68V432.56A5.68,5.68,0,0,1,845.2,426.88Z" transform="translate(-240.55 -120.41)"/><rect class="cls-17" x="432.25" y="282.93" width="7.3" height="41.39"/><path class="cls-18" d="M689.83,482.06h0a25.17,25.17,0,0,1-25.16-25.16v-1.62a25.16,25.16,0,0,1,25.16-25.16h0v51.94Z" transform="translate(-240.55 -120.41)"/><path class="cls-17" d="M689,484.49h0a5.69,5.69,0,0,1-5.68-5.68V433.36a5.68,5.68,0,0,1,5.68-5.68h0a5.68,5.68,0,0,1,5.68,5.68v45.45A5.68,5.68,0,0,1,689,484.49Z" transform="translate(-240.55 -120.41)"/><path class="cls-18" d="M853.27,358.29c-9.89-20.56-31.43-45.42-77.86-47.41v-.06h-.56l-16.45.78v.08c-46.12,2.12-67.56,26.89-77.42,47.38a106.72,106.72,0,0,0-10.22,44.4l5.68-.14,5.68-.13a96.86,96.86,0,0,1,9.23-39.52C703.87,338,726.91,324.28,759.82,323h0l14.55-.81h0c32.93,1.26,56,14.95,68.49,40.66a96.45,96.45,0,0,1,9.25,39.54l5.68.13,5.68.14A106.46,106.46,0,0,0,853.27,358.29Z" transform="translate(-240.55 -120.41)"/><rect class="cls-19" x="137.51" y="717.55" width="774.71" height="208"/><rect class="cls-10" x="134.51" y="731.55" width="774.71" height="27"/><rect class="cls-19" x="85.54" y="714.55" width="878.63" height="27"/></svg>