<svg id="Capa_1" data-name="Capa 1" xmlns="http://www.w3.org/2000/svg" viewBox="0 0 511.99 511.96"><defs><style>.cls-1{fill:#000000;}</style></defs><title>email</title><path class="cls-1" d="M512,196.24c0-.18-.09-.33-.1-.5a7.9,7.9,0,0,0-.35-1.74,8.56,8.56,0,0,0-.49-1.48,8.36,8.36,0,0,0-.85-1.28,8.79,8.79,0,0,0-1.16-1.35c-.14-.12-.2-.28-.34-.39l-82-63.73V59.71a25.6,25.6,0,0,0-25.6-25.6H308.58l-37-28.75a25.33,25.33,0,0,0-31.13,0l-37,28.75H110.93a25.6,25.6,0,0,0-25.6,25.6v66.06l-82,63.73c-.14.11-.2.27-.34.4a8.27,8.27,0,0,0-1.16,1.34,8.36,8.36,0,0,0-.85,1.28A8.56,8.56,0,0,0,.45,194a8.24,8.24,0,0,0-.35,1.71c0,.17-.1.32-.1.5V486.38a25.19,25.19,0,0,0,1.43,8.06,8.45,8.45,0,0,0,9.38,12.8A25.43,25.43,0,0,0,25.59,512h460.8a25.36,25.36,0,0,0,14.82-4.81,8.21,8.21,0,0,0,2.25.37,8.46,8.46,0,0,0,7.12-13.1,25.44,25.44,0,0,0,1.41-8.06V196.24ZM250.87,18.83a8.18,8.18,0,0,1,10.18,0l19.69,15.28h-49.5ZM27.71,494.91,250.87,321.56a8.22,8.22,0,0,1,10.17,0L484.27,494.91Zm467.21-13.33L271.54,308.09a25.31,25.31,0,0,0-31.1,0L17.06,481.58V209.24L156.89,317.83a8.54,8.54,0,0,0,10.47-13.5L25.29,194l60-46.65v65.94a8.54,8.54,0,0,0,17.07,0V59.71a8.53,8.53,0,0,1,8.53-8.53H401.06a8.53,8.53,0,0,1,8.53,8.53v153.6a8.54,8.54,0,0,0,17.07,0V147.37l60,46.65L344.37,304.53A8.53,8.53,0,1,0,354.84,318L494.92,209.24Z" transform="translate(0 -0.02)"/><path class="cls-1" d="M170.66,110.91H341.33a8.54,8.54,0,0,0,0-17.07H170.66a8.54,8.54,0,1,0,0,17.07Z" transform="translate(0 -0.02)"/><path class="cls-1" d="M349.86,153.58a8.53,8.53,0,0,0-8.53-8.54H170.66a8.54,8.54,0,1,0,0,17.07H341.33A8.53,8.53,0,0,0,349.86,153.58Z" transform="translate(0 -0.02)"/><path class="cls-1" d="M349.86,204.78a8.53,8.53,0,0,0-8.53-8.54h-76.8a8.54,8.54,0,1,0,0,17.07h76.8A8.53,8.53,0,0,0,349.86,204.78Z" transform="translate(0 -0.02)"/></svg>