<svg id="adf35c87-b782-4e77-99e1-73b1e980183a" xmlns="http://www.w3.org/2000/svg" xmlns:xlink="http://www.w3.org/1999/xlink" viewBox="0 0 1129.97 814.82"><defs><linearGradient id="linear-gradient" x1="-344.36" y1="-34.62" x2="-344.36" y2="462.52" gradientTransform="translate(365.16 773.42) rotate(180)" gradientUnits="userSpaceOnUse"><stop offset="0" stop-color="gray" stop-opacity="0.25"/><stop offset="0.54" stop-color="gray" stop-opacity="0.12"/><stop offset="1" stop-color="gray" stop-opacity="0.1"/></linearGradient></defs><title>undraw_email_campaign_qa8y</title><path d="M656.54,126.55C584.1,124,515.1,100.65,449.22,75.06S318.07,21.13,247.37,7.57C201.89-1.15,149.88-2.38,113.24,22,78,45.42,66.58,86,60.46,123.55c-4.61,28.27-7.32,58,5.3,84.5,8.77,18.38,24.34,33.83,35.11,51.43,37.45,61.25,11,136.79-29.62,196.59-19,28.06-41.13,54.82-55.82,84.68S-6.06,604.84,6.79,635.3c12.75,30.2,43.11,52.88,76,68.83,66.81,32.4,145.54,41.68,222.31,46.93,169.94,11.62,340.79,6.59,511.18,1.55,63.06-1.87,126.39-3.76,188.43-13.51,34.44-5.41,70-14,95-34.75,31.75-26.34,39.62-70.94,18.34-104C1082.37,545,983.7,531.2,958.76,471.75c-13.73-32.72.37-69.18,20.32-99.52,42.8-65.11,114.54-122.23,118.32-196.64,2.6-51.11-31.89-102.3-85.21-126.48C956.29,23.76,878.79,27,837.55,68.91,795.12,112.15,720.5,128.77,656.54,126.55Z" transform="translate(0 -0.01)" fill="#c1905f" opacity="0.25" style="isolation:isolate"/><g opacity="0.9"><rect x="724.27" y="238.9" width="9.91" height="81.73" rx="2.29" fill="#3a3768"/><rect x="394.7" y="174.87" width="5.56" height="26.91" rx="2.29" fill="#3a3768"/><rect x="394.5" y="224.13" width="6.27" height="46.84" rx="2.29" fill="#3a3768"/><rect x="394.6" y="287.35" width="5.97" height="47.24" rx="2.29" fill="#3a3768"/><rect x="397.85" y="85.94" width="331.77" height="674.27" rx="38.99" fill="#3a3768"/><rect x="531.73" y="106.08" width="46.33" height="9.41" rx="3.87" fill="#e6e8ec"/><circle cx="590.4" cy="110.78" r="5.34" fill="#e6e8ec"/></g><path d="M682.78,103.52h-38v4.58a21.69,21.69,0,0,1-21.69,21.69H502a21.7,21.7,0,0,1-21.7-21.69v-4.58H444.69a26.35,26.35,0,0,0-26.35,26.35h0V716.31a26.35,26.35,0,0,0,26.35,26.35H682.78a26.35,26.35,0,0,0,26.35-26.35V129.87A26.35,26.35,0,0,0,682.78,103.52Z" transform="translate(0 -0.01)" fill="#d7a164" opacity="0.5" style="isolation:isolate"/><rect x="418.58" y="148.46" width="291.02" height="26.86" fill="#e6e8ec"/><rect x="427.54" y="154.05" width="24.63" height="2.24" fill="#3a3768"/><rect x="427.54" y="160.77" width="24.63" height="2.24" fill="#3a3768"/><rect x="427.54" y="167.49" width="24.63" height="2.24" fill="#3a3768"/><path d="M690,164.49h-.91l-.35-.28a7.63,7.63,0,0,0,1.78-4.9,7.44,7.44,0,1,0-7.4,7.49A7.64,7.64,0,0,0,688,165l.34.29v.92l5.74,5.76,1.72-1.73Zm-6.88,0a5.18,5.18,0,1,1,5.16-5.2v0a5.16,5.16,0,0,1-5.12,5.18Z" transform="translate(0 -0.01)" fill="#3a3768"/><circle cx="439.85" cy="224.57" r="12.31" fill="#e6e8ec"/><rect x="478.47" y="236.88" width="171.26" height="6.72" fill="#e6e8ec"/><rect x="479.03" y="251.43" width="171.26" height="6.72" fill="#e6e8ec"/><rect x="479.59" y="265.99" width="171.26" height="6.72" fill="#e6e8ec"/><circle cx="439.85" cy="308.52" r="12.31" fill="#e6e8ec"/><rect x="478.47" y="320.83" width="171.26" height="6.72" fill="#e6e8ec"/><rect x="479.03" y="335.38" width="171.26" height="6.72" fill="#e6e8ec"/><rect x="479.59" y="349.93" width="171.26" height="6.72" fill="#e6e8ec"/><circle cx="439.85" cy="392.47" r="12.31" fill="#e6e8ec"/><rect x="478.47" y="404.78" width="171.26" height="6.72" fill="#e6e8ec"/><rect x="479.03" y="419.33" width="171.26" height="6.72" fill="#e6e8ec"/><rect x="479.59" y="433.88" width="171.26" height="6.72" fill="#e6e8ec"/><circle cx="439.85" cy="476.42" r="12.31" fill="#e6e8ec"/><rect x="478.47" y="488.73" width="171.26" height="6.72" fill="#e6e8ec"/><rect x="479.03" y="503.28" width="171.26" height="6.72" fill="#e6e8ec"/><rect x="479.59" y="517.83" width="171.26" height="6.72" fill="#e6e8ec"/><circle cx="439.85" cy="560.37" r="12.31" fill="#e6e8ec"/><rect x="478.47" y="572.68" width="171.26" height="6.72" fill="#e6e8ec"/><rect x="479.03" y="587.23" width="171.26" height="6.72" fill="#e6e8ec"/><rect x="479.59" y="601.78" width="171.26" height="6.72" fill="#e6e8ec"/><circle cx="439.85" cy="644.32" r="12.31" fill="#e6e8ec"/><rect x="478.47" y="656.63" width="171.26" height="6.72" fill="#e6e8ec"/><rect x="479.03" y="671.18" width="171.26" height="6.72" fill="#e6e8ec"/><rect x="479.59" y="685.73" width="171.26" height="6.72" fill="#e6e8ec"/><circle cx="650.28" cy="692.45" r="31.34" opacity="0.1" style="isolation:isolate"/><circle cx="650.28" cy="692.45" r="27.98" fill="#d7a164"/><path d="M314.09,115.85l-54.73,29.57A1.13,1.13,0,0,0,259,147a1.11,1.11,0,0,0,.47.44l9.34,3.51a2.27,2.27,0,0,1,1.23,1.15L277.26,167c.14.66,1.36.83,1.37.16l-1.11-12.34a4.49,4.49,0,0,1,1-2.5l28.38-27.8a.71.71,0,0,1,.62-.18.65.65,0,0,1,.44.8.72.72,0,0,1-.09.2l-24.46,30.06a5.54,5.54,0,0,0-1,2.46L281,168.54c.12.93.85,1.28,1.43.45l5.27-6.19a1.09,1.09,0,0,1,1.53-.27h0l13.58,9.9a1.11,1.11,0,0,0,1.54-.23,1.16,1.16,0,0,0,.19-.44l11.14-54.69a1.11,1.11,0,0,0-.83-1.33,1.14,1.14,0,0,0-.77.1Z" transform="translate(0 -0.01)" fill="#d7a164"/><path d="M892,127.47l-54.73,29.61a1.15,1.15,0,0,0-.39,1.57,1.25,1.25,0,0,0,.48.43l9.33,3.52a2.17,2.17,0,0,1,1.23,1.15l7.26,14.93c.14.66,1.35.84,1.37.17l-1.11-12.35a4.32,4.32,0,0,1,1-2.49l28.37-27.8a.68.68,0,0,1,.62-.18.64.64,0,0,1,.45.8.72.72,0,0,1-.09.2L861.32,167a5.46,5.46,0,0,0-1,2.47l-1.47,10.66c.12.93.85,1.29,1.44.45l5.27-6.18a1.09,1.09,0,0,1,1.53-.27h0L880.69,184a1.08,1.08,0,0,0,1.52-.23,1,1,0,0,0,.2-.44l11.14-54.69a1.11,1.11,0,0,0-.83-1.33,1.14,1.14,0,0,0-.77.1Z" transform="translate(0 -0.01)" fill="#d7a164"/><path d="M554.26,19.13,516.89,39.34a.79.79,0,0,0-.32,1.06.77.77,0,0,0,.37.34l6.38,2.4a1.53,1.53,0,0,1,.84.78l5,10.2c.1.45.93.57.94.12l-.76-8.44a3.11,3.11,0,0,1,.68-1.7l19.38-19a.46.46,0,0,1,.42-.12.44.44,0,0,1,.33.53.61.61,0,0,1-.09.18l-16.7,20.43a3.81,3.81,0,0,0-.65,1.68l-1,7.28c.08.64.57.88,1,.31l3.6-4.22a.75.75,0,0,1,1-.18l9.27,6.76a.75.75,0,0,0,1-.16.81.81,0,0,0,.13-.3L555.37,20a.75.75,0,0,0-1.09-.84Z" transform="translate(0 -0.01)" fill="#d7a164"/><path d="M766.93.1,729.56,20.32a.77.77,0,0,0-.3,1.06.8.8,0,0,0,.35.33l6.38,2.4a1.51,1.51,0,0,1,.84.79l4.95,10.19c.1.45.93.57.94.12L742,26.78a3.07,3.07,0,0,1,.68-1.71l19.38-19a.46.46,0,0,1,.42-.12.44.44,0,0,1,.33.53.61.61,0,0,1-.09.18L746,27.11a3.81,3.81,0,0,0-.65,1.68l-1,7.29c.08.63.58.87,1,.3l3.6-4.22a.74.74,0,0,1,1-.18h0l9.28,6.76a.75.75,0,0,0,1-.15.85.85,0,0,0,.13-.31L768,.94A.75.75,0,0,0,766.91.1Z" transform="translate(0 -0.01)" fill="#d7a164"/><path d="M909.05,259.82l-110.32-9.11a2,2,0,0,0-1.86,3.12l10.49,14.32a3.88,3.88,0,0,1,.72,2.91l-3.72,29.3c-.43,1.11,1.21,2.56,1.88,1.58l10.36-19.52a7.8,7.8,0,0,1,3.91-2.74l69.3-13.82a1.25,1.25,0,0,1,1.09.33,1.16,1.16,0,0,1-.48,1.9l-65.53,20.83a9.79,9.79,0,0,0-3.83,2.74l-12.55,14.46c-.72,1.51,0,2.74,1.7,2.07l13.87-4.09a2,2,0,0,1,2.56,1.12l10.6,27.94a2,2,0,0,0,2.61,1.08,1.94,1.94,0,0,0,.62-.4l69.77-70.63a2,2,0,0,0-1.19-3.39Z" transform="translate(0 -0.01)" fill="#d7a164"/><path d="M611.66,371.08a17.83,17.83,0,0,0,3.76,3.8c.93.77,1.89,1.56,2.89,2.26.28.2.57.39.86.58,0,0-.06.1-.08.16a2.31,2.31,0,0,0-.26,1.39,3,3,0,0,0,1.07,1.44,14.83,14.83,0,0,1,4.51,8.15c.34,1.81-.88,3.75-.8,5.59a16.33,16.33,0,0,0,1.42,5.22c1.53,3.88,3.15,7.91,6.2,10.74a34.8,34.8,0,0,0,6.95,17.13c3.22,4.11,7.5,7.23,11.73,10.28a22.66,22.66,0,0,0,4.33,2.72,24.47,24.47,0,0,0,4.29,1.15A221.07,221.07,0,0,0,696.22,446q.53,11.3.46,22.59a9.43,9.43,0,0,1-.52,3.65,16.51,16.51,0,0,1-2.18,3.06c-2.89,3.84-3,9.06-2.8,13.87a127.83,127.83,0,0,0,2,16.78c1.31,7.1.11,14.94,2.63,21.7l3,8a7.18,7.18,0,0,1,.59,2.37c0,1.75-1.16,3.24-2,4.76a13.79,13.79,0,0,0-1.75,7.27,1.53,1.53,0,0,0,.21.81c.33.44,1,.4,1.54.32a64.77,64.77,0,0,1,6.68-.62A12.35,12.35,0,0,0,703,552.1a24.58,24.58,0,0,0-1.42,2.92,27.62,27.62,0,0,0-1.9,5.22,7.16,7.16,0,0,0-.19.8c-.12.54-.23,1.09-.32,1.63a54.13,54.13,0,0,0-.59,9.6c-.31,6-.61,12.24-1.19,14.06-.82,2.59.2,6.73,1.21,10.68a25.35,25.35,0,0,0,1.45,8,47.91,47.91,0,0,0,1,8.44q5.19,29.24,11,58.34c.35,1.69.68,3.37,1.13,5a40.92,40.92,0,0,0,7.49,14.81,67,67,0,0,1,7.82,12.52c-.23,1.06-.47,2.12-.72,3.17-2.2,9.29-5.11,18.45-6.12,27.94-.4,3.78-.52,7.68-2,11.17-.76,1.78-1.88,3.48-2,5.41a6,6,0,0,0,.83,3.51c-.26.19-.51.39-.75.59l-.41.34c-2.84,2.26-6.65,2.72-10.15,3.63s-7.27,2.76-8.35,6.24a5.06,5.06,0,0,0-.17.67c-.64,3.2,1.3,6.6,4,8.48,2.91,2,6.53,2.62,10,3.07s7.12.8,10.29,2.36c2.74,1.36,5,3.59,8,4.57l.51.15c-.65.39-1.31.77-2,1.12a30.27,30.27,0,0,1-9.59,3c-3.38.47-7.42.69-9.16,3.64h0c-1.42,2.44-.39,5.73,1.66,7.65s4.89,2.78,7.64,3.38a139.5,139.5,0,0,0,19,2.36l6.21.47c6,.46,12.12.93,18.2,1a125.37,125.37,0,0,0,22.38-1.95,2.42,2.42,0,0,0,1.78-.86,2.5,2.5,0,0,0,.27-1.42A109.19,109.19,0,0,0,785,781.25c-.51-2.22-3.54.81-5.24,2.73-.22-1.11-.48-2.21-.77-3.28l1.33-.63a4.76,4.76,0,0,0,2.44-2,4.83,4.83,0,0,0,.26-2.35c-.24-4.88-.54-9.94-2.86-14.23a30,30,0,0,0-5.66-6.89c-.69-15.33-2.19-30.68-5.54-45.64-1.72-7.65-3.85-15.38-8.27-21.85-.55-.81-1.15-1.62-1.75-2.43a197.09,197.09,0,0,0-2.67-21.93,5.56,5.56,0,0,1,0-2.92,8.82,8.82,0,0,1,1.61-2.22c2.66-3.43,1.57-8.31,1.26-12.65-.44-6.24,1-12.42,2.49-18.5Q764.35,615.23,767,604a36.71,36.71,0,0,1,1.9-6.23c1.26-2.82,3.21-5.26,4.88-7.86a44.3,44.3,0,0,0,6.78-26.71l3.06,1.13c.75-6.28-1.9-13.41,0-19.31a24.77,24.77,0,0,0,7.66-9.12c1.48-3.32,1.9-7.06,3.45-10.35.88-1.85,2.11-3.56,2.62-5.55.77-3-.19-6.12-.15-9.19.1-6.69,5-12.9,3.9-19.51-.5-3.14-2.32-6-2.22-9.23a15.44,15.44,0,0,1,1.29-5c3.68-9.75,7.31-20.13,5.42-30.39-.48-2.62-1.33-5.23-1.19-7.9.16-3.05,1.61-6,1.18-9.05a6.82,6.82,0,0,0-1.36-3.17,38,38,0,0,0,3.35-6.42,9.21,9.21,0,0,0,.89-4.1,7.24,7.24,0,0,0-2.89-4.88,29.37,29.37,0,0,0-5-2.91,4.14,4.14,0,0,1-1.47-1.05,10.33,10.33,0,0,1-.83-1.58c-1-1.71-3.13-2.25-4.82-3.28-6.1-3.72-5.51-13.31-10.72-18.22a10.42,10.42,0,0,0-13-.69,3.16,3.16,0,0,1-1.84.91,3.52,3.52,0,0,1-1.78-1,7.16,7.16,0,0,0-4.4-1.22,42.13,42.13,0,0,1-1.32-11.67h.47a6.21,6.21,0,0,0,1.82-.21c2.68-.77,4.21-3.54,5.3-6.12a46.92,46.92,0,0,0,2.35-6.72c.06-.22.11-.44.16-.65,5.13,3.6,11.09,7.37,12.51,6.58,2.63-1.45-11.75-11.68-11.75-11.68h0c1.69-1.5,2.63-4.21,3-6.6.84-4.77,1.24-9.73.12-14.45s-3.95-9.21-8.25-11.41c-1.9-1-4.21-1.66-5.59-3.17h0a3.6,3.6,0,0,1-.54-.74h0a1.87,1.87,0,0,1-.22-.39,5.25,5.25,0,0,0-.6-1.18c-.79-.91-2.22-.63-3.41-.49h-1c-4.26.09-8.39-2.29-12.7-2.29-4.73,0-8.75,2.74-12.91,4.62-.84.38-1.64.73-2.39,1.08-2.6,1.22-4.65,2.52-6,5.45A8.51,8.51,0,0,0,719,325.4a7.65,7.65,0,0,0-.22,1.72,28.61,28.61,0,0,0,12.86,48c.1.28.2.56.29.84a23.91,23.91,0,0,1,1.25,8v.57a21.66,21.66,0,0,0-6.17,2.51,11.9,11.9,0,0,0-5.2,6.39,6.06,6.06,0,0,0-.16.61,16.33,16.33,0,0,0-4.7-.81c-1.45,0-3.08.11-4,1.21a3.75,3.75,0,0,0-.76,1.55c-.55.51-.66,1.39-1,2.06-1.21,2.11-4.33,1.42-6.68,2-2.55.63-4.56,3-7.19,3a12.05,12.05,0,0,0-3-.11c-1,.24-1.76,1.59-1,2.27a3.19,3.19,0,0,0-3,1.45c-.72.94-1.2,2.06-2,2.94a3.06,3.06,0,0,0-3.12-1.21,11.41,11.41,0,0,0-3.29,1.3,4.64,4.64,0,0,1-1.45.51,6.22,6.22,0,0,1-1.77-.16,14.14,14.14,0,0,0-8.28,1.16c-2.28,1.08-4.47-.9-7-1.06a3.86,3.86,0,0,1-2.56-.79,5,5,0,0,1-1-2,10,10,0,0,0-7.32-6.48,8.52,8.52,0,0,0-5-10.51,9.08,9.08,0,0,0-3.12-7.92,15.66,15.66,0,0,1-1.58-1.24,7.68,7.68,0,0,1-1.45-2.68l-2.22-5.88c-1-.2-1.75-.61-2.68-.77v-.6a19.08,19.08,0,0,0-1-5.9,33,33,0,0,0-4.74-8.63c-2.12-3-4.47-5.87-7.62-7.66a28.08,28.08,0,0,0-3.25-1.5l-5.72-2.36a2.67,2.67,0,0,0-1-.28c-1.54,0-1.82,2.38-1,3.65,1.74,2.57,5.66,3.29,6.77,6.2a4.41,4.41,0,0,0-4.09,3.18,2.21,2.21,0,0,1-.55,1.29c-.5.41-1.29.17-1.87.48-1,.55-.57,2.07-.68,3.22a15.53,15.53,0,0,1-1,2.9A6.2,6.2,0,0,0,611.66,371.08Zm137.12,401c0-.59-.08-1.18-.13-1.76.12.31.23.63.35.94,1,2.64,2.13,5.24,3.31,7.81l-.2-.11a10,10,0,0,0-2.73-.78,2.8,2.8,0,0,1-.76-.07,21.24,21.24,0,0,0,.16-6Z" transform="translate(0 -0.01)" fill="url(#linear-gradient)"/><path d="M733.28,386.26c-.11,4.18-1.52,8.22-1.74,12.39,12.29.61,24.42-5.35,36.6-3.53-3.4-2.2-5.22-6.17-6.3-10.08a42.09,42.09,0,0,1-1.2-15.48,6.21,6.21,0,0,1,.16-.86c.45-2,1.62-4.93,1.3-6.54-.41-2.12-2.41-1.7-4.22-1.58a159,159,0,0,0-16.41,2.12c-1.41.24-15.2,3.68-15.4,3.32a64.43,64.43,0,0,1,6,12.29A23.84,23.84,0,0,1,733.28,386.26Z" transform="translate(0 -0.01)" fill="#ee8e9e"/><path d="M611.66,373.36a18.21,18.21,0,0,0,3.76,3.78c.93.77,1.89,1.55,2.89,2.25a12.36,12.36,0,0,0,6.15,2.5c2.93.2,9.14-1.52,11-4a7.22,7.22,0,0,0,1-4.2,18.89,18.89,0,0,0-1-5.87,32.86,32.86,0,0,0-4.74-8.58c-2.12-2.94-4.47-5.84-7.62-7.62a28.08,28.08,0,0,0-3.25-1.5l-5.72-2.34a2.67,2.67,0,0,0-1-.28c-1.54,0-1.82,2.36-1,3.63,1.74,2.56,5.66,3.27,6.77,6.17a4.39,4.39,0,0,0-4.09,3.16,2.18,2.18,0,0,1-.55,1.28c-.5.41-1.29.18-1.87.48-1,.55-.57,2.06-.68,3.21a15.34,15.34,0,0,1-1,2.88A6.16,6.16,0,0,0,611.66,373.36Z" transform="translate(0 -0.01)" fill="#ee8e9e"/><path d="M781.18,792c-.94-1-2.49-.79-3.81-.58a141.46,141.46,0,0,1-21.45,1.74c-.9-4.39,1.71-8.66,2.55-13.07a11.38,11.38,0,0,1,.85-3.3c1-1.94,3.29-2.83,5.43-3.28,3.87-.81,9.91-2.25,12.07,1.65C779.41,779.88,780.24,786.81,781.18,792Z" transform="translate(0 -0.01)" fill="#65617d"/><path d="M702.59,775.42c2.91,2,6.53,2.61,10,3.06s7.12.79,10.29,2.35c2.74,1.35,5,3.57,8,4.54a16.58,16.58,0,0,0,8.25.13c3.26-.61,6.73-1.8,8.49-4.61,1.56-2.5,1.4-5.68,1.18-8.62-.25-3.33-.49-6.66-.74-10a4.73,4.73,0,0,0-.62-2.41c-2.35-3.44-8.08,1.43-11.15,1.43-4.86,0-10.07-2.64-13.57-5.86a4.35,4.35,0,0,0-1.06-.8c-1.38-.62-2.77.53-4,1.53l-.41.34c-2.84,2.25-6.65,2.71-10.15,3.62s-7.27,2.74-8.35,6.2a5.33,5.33,0,0,0-.17.66C697.92,770.19,699.86,773.57,702.59,775.42Z" transform="translate(0 -0.01)" fill="#3f3d56"/><path d="M702.59,775.42c2.91,2,6.53,2.61,10,3.06s7.12.79,10.29,2.35c2.74,1.35,5,3.57,8,4.54a16.58,16.58,0,0,0,8.25.13c3.26-.61,6.73-1.8,8.49-4.61,1.56-2.5,1.4-5.68,1.18-8.62-.25-3.33-.49-6.66-.74-10a4.73,4.73,0,0,0-.62-2.41c-2.35-3.44-8.08,1.43-11.15,1.43-4.86,0-10.07-2.64-13.57-5.86a4.35,4.35,0,0,0-1.06-.8c-1.38-.62-2.77.53-4,1.53l-.41.34c-2.84,2.25-6.65,2.71-10.15,3.62s-7.27,2.74-8.35,6.2a5.33,5.33,0,0,0-.17.66C697.92,770.19,699.86,773.57,702.59,775.42Z" transform="translate(0 -0.01)" opacity="0.05" style="isolation:isolate"/><path d="M702.59,776.56c2.91,2,6.53,2.61,10,3.06s7.12.79,10.29,2.35c2.74,1.35,5,3.57,8,4.54a16.58,16.58,0,0,0,8.25.13,13.62,13.62,0,0,0,8.49-5.73c1.56-2.5,1.4-5.68,1.18-8.62-.25-3.33-.49-6.66-.74-10a4.73,4.73,0,0,0-.62-2.41c-2.35-3.44-8.08,1.43-11.15,1.43-4.86,0-10.07-2.64-13.57-5.86a4.35,4.35,0,0,0-1.06-.8c-1.38-.62-2.77.53-4,1.53a28.55,28.55,0,0,0,3.41,7,14.71,14.71,0,0,0,10.7,6.7c2.17.16,4.4-.27,6.5.29s4,2.7,3.31,4.75-3.29,2.42-5.41,2.53c-3,.17-6,.31-8.83-.61-1.72-.58-3.29-1.53-5-2.22-7.12-3-16.11-1.3-22-6.29a13.42,13.42,0,0,0-1.8-1.38C697,770.23,699.86,774.69,702.59,776.56Z" transform="translate(0 -0.01)" fill="#e8eaf2"/><path d="M702.59,776.56c2.91,2,6.53,2.61,10,3.06s7.12.79,10.29,2.35c2.74,1.35,5,3.57,8,4.54a16.58,16.58,0,0,0,8.25.13,13.62,13.62,0,0,0,8.49-5.73c1.56-2.5,1.4-5.68,1.18-8.62-.25-3.33-.49-6.66-.74-10a4.73,4.73,0,0,0-.62-2.41c-2.35-3.44-8.08,1.43-11.15,1.43-4.86,0-10.07-2.64-13.57-5.86a4.35,4.35,0,0,0-1.06-.8c-1.38-.62-2.77.53-4,1.53a28.55,28.55,0,0,0,3.41,7,14.71,14.71,0,0,0,10.7,6.7c2.17.16,4.4-.27,6.5.29s4,2.7,3.31,4.75-3.29,2.42-5.41,2.53c-3,.17-6,.31-8.83-.61-1.72-.58-3.29-1.53-5-2.22-7.12-3-16.11-1.3-22-6.29a13.42,13.42,0,0,0-1.8-1.38C697,770.23,699.86,774.69,702.59,776.56Z" transform="translate(0 -0.01)" opacity="0.05" style="isolation:isolate"/><path d="M779.85,558.68a43.76,43.76,0,0,1-6,32.3c-1.67,2.59-3.62,5-4.88,7.82a36.39,36.39,0,0,0-1.9,6.2l-5.41,22.42c-1.46,6-2.93,12.2-2.49,18.4.31,4.32,1.4,9.17-1.26,12.59a8.9,8.9,0,0,0-1.61,2.2,5.53,5.53,0,0,0,0,2.91c2.74,16.24,4.76,33.23-.18,48.94-4.47,14.24-4.73,30-8.54,44.46-.47,1.79-1,3.67-2.36,4.93a7.76,7.76,0,0,1-3.55,1.69c-5.61,1.33-11.53-.23-16.76-2.66-3.68-1.7-7.64-4.69-7.32-8.73.15-1.92,1.27-3.61,2-5.38,1.5-3.47,1.62-7.35,2-11.11,1-9.44,3.92-18.55,6.12-27.79s3.7-18.89,1.84-28.2a246.83,246.83,0,0,0-18.15-55.81,6.46,6.46,0,0,0-1.66-2.49,17.14,17.14,0,0,1-2.35-1.61,7,7,0,0,1-1.07-2.93c-.82-2.94-3.25-5.12-4.88-7.7-4.12-6.54-2.81-14.92-2.66-22.64.15-7.51-.93-15.08.3-22.49s5.47-15,12.61-17.3c3.54-1.15,7.37-.89,11.07-.52C742.39,548.07,761.45,551.63,779.85,558.68Z" transform="translate(0 -0.01)" fill="#303d5c"/><path d="M779.85,558.68a43.76,43.76,0,0,1-6,32.3c-1.67,2.59-3.62,5-4.88,7.82a36.39,36.39,0,0,0-1.9,6.2l-5.41,22.42c-1.46,6-2.93,12.2-2.49,18.4.31,4.32,1.4,9.17-1.26,12.59a8.9,8.9,0,0,0-1.61,2.2,5.53,5.53,0,0,0,0,2.91c2.74,16.24,4.76,33.23-.18,48.94-4.47,14.24-4.73,30-8.54,44.46-.47,1.79-1,3.67-2.36,4.93a7.76,7.76,0,0,1-3.55,1.69c-5.61,1.33-11.53-.23-16.76-2.66-3.68-1.7-7.64-4.69-7.32-8.73.15-1.92,1.27-3.61,2-5.38,1.5-3.47,1.62-7.35,2-11.11,1-9.44,3.92-18.55,6.12-27.79s3.7-18.89,1.84-28.2a246.83,246.83,0,0,0-18.15-55.81,6.46,6.46,0,0,0-1.66-2.49,17.14,17.14,0,0,1-2.35-1.61,7,7,0,0,1-1.07-2.93c-.82-2.94-3.25-5.12-4.88-7.7-4.12-6.54-2.81-14.92-2.66-22.64.15-7.51-.93-15.08.3-22.49s5.47-15,12.61-17.3c3.54-1.15,7.37-.89,11.07-.52C742.39,548.07,761.45,551.63,779.85,558.68Z" transform="translate(0 -0.01)" opacity="0.05" style="isolation:isolate"/><path d="M700,605.76a46.94,46.94,0,0,0,1,8.68q5.19,29.09,11,58c.35,1.68.68,3.35,1.13,5a40.65,40.65,0,0,0,7.49,14.73c16.3,20.31,17.71,49.81,26.55,74.3.59,1.66,1.19,3.32,1.82,5a123.85,123.85,0,0,0,5.46,12.17,2.59,2.59,0,0,0,2.9,1.8,51.75,51.75,0,0,0,23-5.23,3.66,3.66,0,0,0,2.7-4.34c-.24-4.85-.54-9.89-2.86-14.15a29.88,29.88,0,0,0-5.66-6.86c-.69-15.25-2.19-30.52-5.54-45.4-1.72-7.61-3.85-15.3-8.27-21.74-3.26-4.75-7.93-9.43-7.36-15.16.26-2.52,1.31-5.65-.74-7.13-.89-.65-2.22-.73-2.82-1.66a3.06,3.06,0,0,1-.4-1.42,35.24,35.24,0,0,1,.73-11.76,62.47,62.47,0,0,0,1.75-7.66c.26-2.62-.18-5.45-1.93-7.4-.11-5.23,0-10.66-.07-15.89a29.72,29.72,0,0,1,.74-8.87c.39-1.37,1-2.68,1.3-4.08,1.1-5-1.63-11,1.62-15,1.35-1.66,3.44-2.48,5.21-3.68,3.55-2.36,5.87-6.23,7.16-10.29a56.59,56.59,0,0,0,2-12.6,13.84,13.84,0,0,0,0-2.73,4.9,4.9,0,0,0-.37-1.36c-1-2.27-3.72-3.15-6.14-3.73a198.59,198.59,0,0,0-46.9-5.48c-5.84-4-9.13-2.56-11.6,1.66a42.65,42.65,0,0,0-3.31,8.07c-1.13,3.41-1.2,22.55-2.3,26C695.89,592,700,601.08,700,605.76Z" transform="translate(0 -0.01)" fill="#303d5c"/><path d="M805.62,431.63c.43,3-1,6-1.18,9-.14,2.66.71,5.25,1.19,7.86,1.89,10.2-1.74,20.53-5.42,30.23a15.19,15.19,0,0,0-1.29,5c-.1,3.16,1.72,6.06,2.22,9.19,1.05,6.57-3.8,12.75-3.9,19.4,0,3.06.92,6.18.15,9.14-.51,2-1.74,3.68-2.62,5.53-1.55,3.27-2,7-3.45,10.29-2.68,6-8.44,9.87-13.91,13.45-3.12-1-6.49-2.27-8.2-5.07a12.54,12.54,0,0,1-1.43-4.46c-1.19-6.8-1.15-13.75-1.1-20.65a129,129,0,0,1,.94-17.79c1.11-7.5,3.54-14.73,5.29-22.11,2.2-9.31,3.33-18.93,6.76-27.86,3-7.84,7.71-14.89,12.66-21.63,1.88-2.58,3.37-6.25,7-5.66A7.69,7.69,0,0,1,805.62,431.63Z" transform="translate(0 -0.01)" fill="#3f3d56"/><path d="M805.62,431.63c.43,3-1,6-1.18,9-.14,2.66.71,5.25,1.19,7.86,1.89,10.2-1.74,20.53-5.42,30.23a15.19,15.19,0,0,0-1.29,5c-.1,3.16,1.72,6.06,2.22,9.19,1.05,6.57-3.8,12.75-3.9,19.4,0,3.06.92,6.18.15,9.14-.51,2-1.74,3.68-2.62,5.53-1.55,3.27-2,7-3.45,10.29-2.68,6-8.44,9.87-13.91,13.45-3.12-1-6.49-2.27-8.2-5.07a12.54,12.54,0,0,1-1.43-4.46c-1.19-6.8-1.15-13.75-1.1-20.65a129,129,0,0,1,.94-17.79c1.11-7.5,3.54-14.73,5.29-22.11,2.2-9.31,3.33-18.93,6.76-27.86,3-7.84,7.71-14.89,12.66-21.63,1.88-2.58,3.37-6.25,7-5.66A7.69,7.69,0,0,1,805.62,431.63Z" transform="translate(0 -0.01)" opacity="0.05" style="isolation:isolate"/><path d="M726.07,366a64.43,64.43,0,0,1,6,12.29,28.21,28.21,0,0,0,6.78.82c8.86,0,15.14-5,20.35-11.41.45-2,3.26-4,2.94-5.56-.41-2.12-2.41-1.7-4.22-1.58a159,159,0,0,0-16.41,2.12C740.06,362.94,726.27,366.42,726.07,366Z" transform="translate(0 -0.01)" opacity="0.1" style="isolation:isolate"/><circle cx="738.81" cy="349.95" r="28.4" fill="#ee8e9e"/><path d="M702.93,553.42c4.91-.29,9.86-.1,14.79.1a51.52,51.52,0,0,1,9.19.94c3.73.85,7.22,2.55,10.9,3.61,5.89,1.72,12.1,1.79,18.21,2.4a104,104,0,0,1,11.92,1.86,4.9,4.9,0,0,0-.37-1.36c-1-2.27-3.72-3.15-6.14-3.73a198.07,198.07,0,0,0-46.9-5.48C708.69,547.8,705.4,549.22,702.93,553.42Z" transform="translate(0 -0.01)" opacity="0.1" style="isolation:isolate"/><path d="M722.28,396.42c1.24,1.43,2.9,3,4.74,2.54a6.58,6.58,0,0,0,1.84-1c3.27-2.11,7.29-2.61,11.14-3.19a164.4,164.4,0,0,0,23-5.16,23.51,23.51,0,0,1,6.79-1.38c4.81,0,9.08,3.23,12.09,7s5.12,8.19,8.12,12c2.11,2.7,4.62,5.08,6.59,7.89,5,7.09,6,16.34,4.75,24.9s-4.7,16.64-8.09,24.6a84.78,84.78,0,0,1-6.61,13.33c1.14,6.5.54,13.94-2.55,19.78-1,1.9-2.24,3.75-2.58,5.88a14.83,14.83,0,0,0,.18,4.31l1.45,10.28c.44,3.13.88,6.27,1.45,9.38,1,5.69,2.46,11.86-.18,17-3.16,6.16.16,14.07-.67,21A105.52,105.52,0,0,0,756,559c-6.1-.59-12.31-.67-18.2-2.38-3.68-1.07-7.17-2.77-10.9-3.62a50.61,50.61,0,0,0-9.19-.94c-6.81-.27-13.66-.54-20.39.46-.55.08-1.21.12-1.54-.32a1.41,1.41,0,0,1-.21-.8,13.62,13.62,0,0,1,1.75-7.23c.85-1.52,2-3,2-4.74a7.19,7.19,0,0,0-.59-2.36l-3-8c-2.52-6.72-1.32-14.52-2.63-21.58a126.49,126.49,0,0,1-2-16.69c-.24-4.79-.09-10,2.8-13.81a16.08,16.08,0,0,0,2.18-3,9.33,9.33,0,0,0,.52-3.63q.09-14.37-.79-28.73c2.52-4.53,5.15-9.16,7.67-13.68,2.93-5.27,5.9-10.64,7.09-16.55.78-3.92.75-8,1.31-11.9a5.24,5.24,0,0,1,1-2.77,5,5,0,0,1,4-1.2A17.71,17.71,0,0,1,722.28,396.42Z" transform="translate(0 -0.01)" fill="#3f3d56"/><path d="M618.31,379.42a12.36,12.36,0,0,0,6.15,2.5c2.93.2,9.14-1.52,11-4a7.22,7.22,0,0,0,1-4.2,5.15,5.15,0,0,0-1.22-.23,32.07,32.07,0,0,0-9.53.38c-3.1.76-6.09,2.64-7.4,5.55Z" transform="translate(0 -0.01)" opacity="0.1" style="isolation:isolate"/><path d="M712.79,440.81c-1.72,2.16-3.53,4.37-6,5.65-2.82,1.46-6.14,1.49-9.32,1.43a223.17,223.17,0,0,1-39-4.28,24.47,24.47,0,0,1-4.29-1.15,23.12,23.12,0,0,1-4.33-2.71c-4.23-3-8.51-6.13-11.73-10.22a34.49,34.49,0,0,1-7-17c-3-2.81-4.67-6.81-6.2-10.68a16.17,16.17,0,0,1-1.42-5.18c-.08-1.84,1.14-3.77.8-5.58a14.66,14.66,0,0,0-4.51-8.1,3,3,0,0,1-1.07-1.43,2.28,2.28,0,0,1,.26-1.38c1.3-2.92,4.29-4.8,7.39-5.56a32.13,32.13,0,0,1,9.54-.38,22.41,22.41,0,0,1,3.12.83l2.22,5.85a7.55,7.55,0,0,0,1.45,2.67,14.26,14.26,0,0,0,1.58,1.23,9,9,0,0,1,3.12,7.88,8.47,8.47,0,0,1,5,10.46,10,10,0,0,1,7.32,6.44,4.84,4.84,0,0,0,1,2,3.86,3.86,0,0,0,2.56.79c2.51.15,4.7,2.13,7,1.06a14.14,14.14,0,0,1,8.28-1.16,6.59,6.59,0,0,0,1.77.15,4.38,4.38,0,0,0,1.45-.5,11.83,11.83,0,0,1,3.29-1.3,3.07,3.07,0,0,1,3.12,1.21c.8-.87,1.28-2,2-2.92a3.21,3.21,0,0,1,3-1.45c-.76-.67,0-2,1-2.26a13.09,13.09,0,0,1,3,.11c2.63,0,4.64-2.4,7.19-3,2.35-.58,5.47.11,6.68-2,.42-.74.51-1.74,1.23-2.2a2.42,2.42,0,0,1,1.59-.18,15.53,15.53,0,0,1,4.79,1.45c2.46,9.62,1.17,19.61-.71,29.36A25.72,25.72,0,0,1,712.79,440.81Z" transform="translate(0 -0.01)" fill="#3f3d56"/><path d="M712.87,475.28l12.23,24.66c-1.32-2.28-4.11-3.17-6.31-4.63a16.78,16.78,0,0,1-6-8.1,49.86,49.86,0,0,1-2.31-10c-.25-1.57-.76-3.76,0-5.18C711.84,472.33,712.29,474.12,712.87,475.28Z" transform="translate(0 -0.01)" opacity="0.1" style="isolation:isolate"/><path d="M748.06,496.22c2.76,2.73,6.13,4.74,9.17,7.16,7.09,5.65,12.15,13.39,17.09,21a33.61,33.61,0,0,1,3.49,6.36c-.58.5-1.45,0-2-.52l-9.6-8.44a21.31,21.31,0,0,1-3.2-3.24c-1.67-2.25-2.41-5-3.92-7.4a29.14,29.14,0,0,0-5.84-6c-2.2-1.89-12.34-10.46-9.87-13.79C745.14,492.3,746.6,494.77,748.06,496.22Z" transform="translate(0 -0.01)" opacity="0.1" style="isolation:isolate"/><path d="M727.07,389.33c3-1.9,6.64-2.7,10.17-3.35a21.27,21.27,0,0,1,6.46-.46c2,.25,3.92,1,5.93,1.13,2.83.16,5.54-1,8.26-1.73s5.88-1,8.18.61a3.45,3.45,0,0,0,1.78,1,3.15,3.15,0,0,0,1.84-.9,10.46,10.46,0,0,1,13,.69c5.21,4.88,4.62,14.42,10.72,18.12,1.69,1,3.84,1.56,4.82,3.27a11.77,11.77,0,0,0,.83,1.57,4.13,4.13,0,0,0,1.47,1,29.27,29.27,0,0,1,5,2.89,7.22,7.22,0,0,1,2.89,4.86,9.13,9.13,0,0,1-.89,4.08,38.3,38.3,0,0,1-37.21,23.79,5.83,5.83,0,0,1-3.9-1.21,7.31,7.31,0,0,1-1.37-2.25c-2.87-6-8.25-10.46-11.68-16.18-2-3.41-3.34-7.22-5.47-10.57-3.21-5.09-8.11-8.85-12.9-12.5-2.7-2.06-5.71-4.22-9.1-4.07-3,.13-5.22.29-4.11-3.42A11.86,11.86,0,0,1,727.07,389.33Z" transform="translate(0 -0.01)" fill="#3f3d56"/><path d="M727.07,389.33c3-1.9,6.64-2.7,10.17-3.35a21.27,21.27,0,0,1,6.46-.46c2,.25,3.92,1,5.93,1.13,2.83.16,5.54-1,8.26-1.73s5.88-1,8.18.61a3.45,3.45,0,0,0,1.78,1,3.15,3.15,0,0,0,1.84-.9,10.46,10.46,0,0,1,13,.69c5.21,4.88,4.62,14.42,10.72,18.12,1.69,1,3.84,1.56,4.82,3.27a11.77,11.77,0,0,0,.83,1.57,4.13,4.13,0,0,0,1.47,1,29.27,29.27,0,0,1,5,2.89,7.22,7.22,0,0,1,2.89,4.86,9.13,9.13,0,0,1-.89,4.08,38.3,38.3,0,0,1-37.21,23.79,5.83,5.83,0,0,1-3.9-1.21,7.31,7.31,0,0,1-1.37-2.25c-2.87-6-8.25-10.46-11.68-16.18-2-3.41-3.34-7.22-5.47-10.57-3.21-5.09-8.11-8.85-12.9-12.5-2.7-2.06-5.71-4.22-9.1-4.07-3,.13-5.22.29-4.11-3.42A11.86,11.86,0,0,1,727.07,389.33Z" transform="translate(0 -0.01)" opacity="0.05" style="isolation:isolate"/><path d="M712.29,800.94c2.06,1.92,4.89,2.76,7.64,3.36a137.91,137.91,0,0,0,19,2.34l6.21.48c6,.46,12.12.92,18.2,1a125.36,125.36,0,0,0,22.38-1.94,1.91,1.91,0,0,0,2-2.27A108.65,108.65,0,0,0,785,781.42c-.7-3-6.13,3.76-6.38,4-1.5,1.71-2.64,2.5-4.93,2.62-6.25.34-13.24-3.46-18.21-6.84a23.37,23.37,0,0,0-3.37-2.09,10,10,0,0,0-2.73-.78,16.58,16.58,0,0,0-9.29,1.89c-3.74,1.85-7,4.51-10.7,6.41a30.27,30.27,0,0,1-9.59,3c-3.38.46-7.42.69-9.16,3.62h0C709.21,795.75,710.24,799,712.29,800.94Z" transform="translate(0 -0.01)" fill="#3f3d56"/><path d="M712.29,802.06c2.06,1.92,4.89,2.76,7.64,3.35a137.93,137.93,0,0,0,19,2.35l6.21.48c6,.46,12.12.92,18.2,1a125.36,125.36,0,0,0,22.38-1.94,2.45,2.45,0,0,0,1.78-.86,10.05,10.05,0,0,0,1.39-2.53c-.13-7.56-2.18-15.1-3.88-22.47-.7-3-6.13,3.76-6.38,4-1.5,1.71-2.64,2.5-4.93,2.62-6.25.34-13.24-3.46-18.21-6.84a23.37,23.37,0,0,0-3.37-2.09,10,10,0,0,0-2.73-.78c.8,4.5,7.25,9.93,10.58,11.58,6.73,3.34,14.73,1.68,22.24,2.07a3,3,0,0,1,1.57.38c.9.6,1,1.87.93,2.95-.06,1.79-.29,3.9-1.85,4.81a5.36,5.36,0,0,1-2.49.52,351.75,351.75,0,0,1-55.45-2,30.27,30.27,0,0,1-9-2,23.66,23.66,0,0,1-5.24-3.37C708.27,795.19,710.24,800.15,712.29,802.06Z" transform="translate(0 -0.01)" fill="#e8eaf2"/><path d="M727.76,349.66c.11,2.93-1.9,8.63,3.59,7,3.28-1,4.2-4.82,8.35-4s5.11,6,6.52,9.33a17.9,17.9,0,0,0,12.94,10.46,7.65,7.65,0,0,0,3.56,0c2.68-.77,4.21-3.53,5.3-6.09a46.43,46.43,0,0,0,2.35-6.68,28.18,28.18,0,0,0,.85-4.91h0a24,24,0,0,0,0-3.39c-.5-6.68-4.3-12.77-9.17-17.37s-10.77-7.93-16.61-11.21a24,24,0,0,0-6.12-2.73,20.37,20.37,0,0,0-6.47-.27,22.72,22.72,0,0,0-8.23,1.93,11.54,11.54,0,0,0-2.9,2,8.7,8.7,0,0,0-2.51,4.19c-1.05,4.31,1.7,8.2,3.93,11.61C725.15,342.67,727.61,345.88,727.76,349.66Z" transform="translate(0 -0.01)" fill="#3f3d56"/><path d="M635.35,412.69c1.17-3,6.1-11.14,4.68-14a37.42,37.42,0,0,0-3.76,6.71C635.34,407.73,636.1,410.8,635.35,412.69Z" transform="translate(0 -0.01)" opacity="0.1" style="isolation:isolate"/><path d="M723,339.64c-2.24-3.41-5-7.3-3.94-11.61a9,9,0,0,1,3.2-4.78,7.57,7.57,0,0,0-.81,2c-1.06,4.32,1.7,8.2,3.93,11.61,2,3,4.45,6.25,4.6,10,.11,2.94-1.9,8.64,3.6,7,3.27-.95,4.19-4.83,8.35-4s5.1,6,6.51,9.33a17.87,17.87,0,0,0,12.94,10.45,7.65,7.65,0,0,0,3.56,0,5.36,5.36,0,0,0,1.68-.82,7.24,7.24,0,0,1-4.06,3.59,7.65,7.65,0,0,1-3.56,0,17.92,17.92,0,0,1-13-10.46c-1.4-3.35-2.32-8.45-6.51-9.33s-5.08,3-8.35,4c-5.5,1.59-3.49-4.11-3.6-7C727.49,345.88,725,342.67,723,339.64Z" transform="translate(0 -0.01)" opacity="0.1" style="isolation:isolate"/><path d="M721.82,333.8a25.38,25.38,0,0,0,1.69,2.41,28.77,28.77,0,0,0,3.88,4c.84.73,1.71,1.41,2.62,2.06a42.34,42.34,0,0,0,5.3,3.16c5.37,2.71,11.19,4.41,17,6.08l11.34,3.3c1.39,1,3.94,2.95,6.75,4.92a28.18,28.18,0,0,0,.85-4.91h0a24,24,0,0,0,0-3.39c-.5-6.68-4.3-12.77-9.17-17.37s-10.77-7.93-16.61-11.21a24,24,0,0,0-6.12-2.73,20.37,20.37,0,0,0-6.47-.27,22.72,22.72,0,0,0-8.23,1.93,11.54,11.54,0,0,0-2.9,2,10.94,10.94,0,0,0-1.45,3.07C719.57,329.24,720.55,331.74,721.82,333.8Z" transform="translate(0 -0.01)" opacity="0.1" style="isolation:isolate"/><path d="M721.82,333a26.58,26.58,0,0,0,1.69,2.4,28.22,28.22,0,0,0,3.88,4,30.9,30.9,0,0,0,2.61,2.08,43.66,43.66,0,0,0,5.3,3.17c5.37,2.7,11.19,4.4,17,6.08l11.34,3.29c4,3,17.2,12.81,19.42,11.58,2.63-1.44-11.75-11.62-11.75-11.62l-.66.5c2.11-1.32,3.21-4.39,3.68-7,.84-4.75,1.24-9.68.12-14.38s-4-9.15-8.25-11.35c-1.9-1-4.21-1.64-5.59-3.15a3.83,3.83,0,0,1-.54-.73,2.46,2.46,0,0,1-.22-.39,5.18,5.18,0,0,0-.6-1.17c-.79-.91-2.22-.64-3.41-.49h-1c-4.26.1-8.39-2.27-12.7-2.27-4.73,0-8.75,2.73-12.91,4.59-.84.38-1.64.73-2.39,1.08-3,1.4-5.26,2.89-6.5,6.87C719.57,328.47,720.55,331,721.82,333Z" transform="translate(0 -0.01)" fill="#d7a164"/><path d="M754.79,315.88a2.07,2.07,0,0,0-.26,1,2,2,0,0,0,.71,1.53A3.52,3.52,0,0,0,757,319a13,13,0,0,0,1.4.11,3.75,3.75,0,0,0,1.84-.31,2.2,2.2,0,0,0,.32-.21,3.83,3.83,0,0,1-.54-.73c-.11.08-.22.06-.64,0a10.54,10.54,0,0,1-2.3-.39,2.75,2.75,0,0,1-.86-.42,2.48,2.48,0,0,1-.81-1.24Z" transform="translate(0 -0.01)" opacity="0.1" style="isolation:isolate"/><path d="M771,353.91a5.48,5.48,0,0,1-2,.73,7.89,7.89,0,0,1-1.52.24,8.37,8.37,0,0,1-3.72-1" transform="translate(0 -0.01)" opacity="0.1" style="isolation:isolate"/><path d="M374.58,367.88,326.86,393.7a1,1,0,0,0-.38,1.36,1,1,0,0,0,.45.42l8.14,3.07a1.91,1.91,0,0,1,1.07,1l6.33,13c.12.58,1.18.73,1.19.15l-1-10.77a3.85,3.85,0,0,1,.87-2.17l24.74-24.24a.59.59,0,0,1,.54-.16.57.57,0,0,1,.31.91l-21.29,26.15a4.83,4.83,0,0,0-.84,2.15l-1.27,9.3c.1.81.74,1.12,1.25.39l4.6-5.39a1,1,0,0,1,1.34-.23l11.85,8.63a1,1,0,0,0,1.38-.31,1.39,1.39,0,0,0,.12-.28L376,369a1,1,0,0,0-.82-1.16,1.06,1.06,0,0,0-.58.08Z" transform="translate(0 -0.01)" fill="#d7a164"/><ellipse cx="917.08" cy="803.38" rx="59.47" ry="11.44" fill="#d7a164"/><ellipse cx="916.09" cy="798.52" rx="6.92" ry="9.06" fill="#3f3d56"/><ellipse cx="916.09" cy="787.45" rx="6.92" ry="9.06" fill="#3f3d56"/><ellipse cx="916.09" cy="776.37" rx="6.92" ry="9.06" fill="#3f3d56"/><ellipse cx="916.09" cy="765.29" rx="6.92" ry="9.06" fill="#3f3d56"/><ellipse cx="916.09" cy="754.21" rx="6.92" ry="9.06" fill="#3f3d56"/><ellipse cx="916.09" cy="743.14" rx="6.92" ry="9.06" fill="#3f3d56"/><ellipse cx="916.09" cy="732.06" rx="6.92" ry="9.06" fill="#3f3d56"/><path d="M942,656.26a36.12,36.12,0,0,0,2.58-3.79l-18.2-3,19.68.15a33.25,33.25,0,0,0,.63-26.28L920.3,637l24.34-17.89a33.17,33.17,0,1,0-54.78,37.11,34.24,34.24,0,0,0-3.78,6l23.62,12.27-25.18-8.45a33.2,33.2,0,0,0,5.34,31.14,33.16,33.16,0,1,0,52.14,0,33.19,33.19,0,0,0,0-41Z" transform="translate(0 -0.01)" fill="#d7a164"/><path d="M882.78,676.77a33,33,0,0,0,7.09,20.5,33.16,33.16,0,1,0,52.14,0C946.45,691.63,882.78,673.05,882.78,676.77Z" transform="translate(0 -0.01)" opacity="0.1" style="isolation:isolate"/><ellipse cx="358.05" cy="772.76" rx="33.95" ry="6.53" fill="#d7a164"/><ellipse cx="358.62" cy="769.98" rx="3.95" ry="5.17" fill="#3f3d56"/><ellipse cx="358.62" cy="763.66" rx="3.95" ry="5.17" fill="#3f3d56"/><ellipse cx="358.62" cy="757.33" rx="3.95" ry="5.17" fill="#3f3d56"/><ellipse cx="358.62" cy="751.01" rx="3.95" ry="5.17" fill="#3f3d56"/><ellipse cx="358.62" cy="744.68" rx="3.95" ry="5.17" fill="#3f3d56"/><ellipse cx="358.62" cy="738.36" rx="3.95" ry="5.17" fill="#3f3d56"/><ellipse cx="358.62" cy="732.04" rx="3.95" ry="5.17" fill="#3f3d56"/><path d="M343.82,688.77a18.78,18.78,0,0,1-1.47-2.17l10.38-1.7L341.5,685a19,19,0,0,1-.36-15l15.07,7.82-13.9-10.22a18.94,18.94,0,0,1,32.86,18.84,18.63,18.63,0,0,1-1.59,2.35,18.15,18.15,0,0,1,2.16,3.45l-13.48,7,14.38-4.8a19,19,0,0,1,1,6.08,18.81,18.81,0,0,1-4.06,11.7,18.93,18.93,0,1,1-29.76,0,18.94,18.94,0,0,1,0-23.41Z" transform="translate(0 -0.01)" fill="#d7a164"/><path d="M377.64,700.48a18.81,18.81,0,0,1-4.06,11.7,18.93,18.93,0,1,1-29.76,0C341.28,709,377.64,698.35,377.64,700.48Z" transform="translate(0 -0.01)" opacity="0.1" style="isolation:isolate"/><ellipse cx="105.17" cy="720.24" rx="22.83" ry="4.39" fill="#d7a164"/><ellipse cx="105.56" cy="718.38" rx="2.66" ry="3.48" fill="#3f3d56"/><ellipse cx="105.56" cy="714.13" rx="2.66" ry="3.48" fill="#3f3d56"/><ellipse cx="105.56" cy="709.87" rx="2.66" ry="3.48" fill="#3f3d56"/><ellipse cx="105.56" cy="705.62" rx="2.66" ry="3.48" fill="#3f3d56"/><ellipse cx="105.56" cy="701.37" rx="2.66" ry="3.48" fill="#3f3d56"/><ellipse cx="105.56" cy="697.12" rx="2.66" ry="3.48" fill="#3f3d56"/><ellipse cx="105.56" cy="692.87" rx="2.66" ry="3.48" fill="#3f3d56"/><path d="M95.61,663.78a11.09,11.09,0,0,1-1-1.46l7-1.14H94.06a12.71,12.71,0,0,1-.25-10.08l10.13,5.32-9.35-6.87a12.73,12.73,0,0,1,22.14,12.56,11.37,11.37,0,0,1-1.14,1.69,13.26,13.26,0,0,1,1.45,2.32l-9,4.69,9.66-3.24a12.55,12.55,0,0,1,.67,4.08,12.7,12.7,0,0,1-2.72,7.87,12.74,12.74,0,1,1-20,0,12.71,12.71,0,0,1,0-15.74Z" transform="translate(0 -0.01)" fill="#d7a164"/><path d="M118.34,671.65a12.7,12.7,0,0,1-2.72,7.87,12.74,12.74,0,1,1-20,0C93.9,677.36,118.34,670.22,118.34,671.65Z" transform="translate(0 -0.01)" opacity="0.1" style="isolation:isolate"/></svg>